<?xml version="1.0" encoding="UTF-8"?><svg id="Layer_1" xmlns="http://www.w3.org/2000/svg" xmlns:xlink="http://www.w3.org/1999/xlink" viewBox="0 0 1290 2796"><defs><clipPath id="clippath"><rect x=".464" width="1289.536" height="2796" fill="none"/></clipPath></defs><g clip-path="url(#clippath)"><path d="M1101.011-51.809l249.81,83.095-34.358-313.182-215.452,230.087ZM1240.113-32.403l-78.237-25.996c-6.364-2.693-8.97-10.003-5.208-15.99l68.768-73.321c3.069-2.619,7.606-3.231,11.264-1.556,3.052,1.398,5.476,4.778,6.012,8.072,5.206,31.988,6.064,65.881,10.97,98.048.303,7.712-6.308,12.369-13.57,10.743ZM1309.316-10.18c-3.889.073-20.546-5.529-23.834-7.797-.66-.455-2.187-1.828-2.59-2.46-1.853-2.906-2.542-12.528-3.039-16.457-6.206-49.04-10.379-98.381-16.509-147.437.106-2.65.828-4.651,2.391-6.775,2.831-3.848,12.827-14.44,16.509-17.519,5.464-4.569,13.36-2.341,16.521,3.776l20.801,184.02c.117,5.728-4.554,10.543-10.249,10.65Z" fill="#231f20"/><path d="M387.245,65.56l-34.358-313.182L137.435-17.536l249.81,83.095ZM302.159-156.833c2.831-3.848,12.827-14.44,16.509-17.519,5.464-4.569,13.36-2.341,16.521,3.776l20.801,184.02c.116,5.728-4.554,10.543-10.249,10.65-3.889.073-20.546-5.529-23.834-7.797-.66-.455-2.187-1.829-2.59-2.46-1.853-2.906-2.542-12.528-3.039-16.457-6.206-49.04-10.379-98.381-16.509-147.437.106-2.65.828-4.651,2.391-6.775ZM261.861-113.436c3.069-2.619,7.606-3.231,11.264-1.556,3.052,1.398,5.476,4.778,6.012,8.072,5.206,31.988,6.064,65.881,10.97,98.048.303,7.712-6.308,12.369-13.57,10.743l-78.237-25.996c-6.364-2.693-8.97-10.003-5.208-15.99l68.769-73.321Z" fill="#231f20"/><path d="M650.785-155.528l-249.81-83.095,34.358,313.182,215.452-230.087ZM511.683-174.934l78.237,25.996c6.364,2.693,8.97,10.003,5.208,15.99l-68.768,73.321c-3.069,2.619-7.606,3.231-11.264,1.556-3.052-1.397-5.476-4.778-6.012-8.072-5.206-31.987-6.064-65.881-10.97-98.048-.303-7.712,6.308-12.369,13.57-10.743ZM442.48-197.157c3.889-.073,20.546,5.529,23.834,7.797.66.455,2.187,1.828,2.59,2.46,1.853,2.906,2.542,12.528,3.039,16.457,6.206,49.04,10.379,98.382,16.509,147.437-.106,2.65-.828,4.651-2.391,6.775-2.831,3.848-12.827,14.44-16.509,17.519-5.464,4.569-13.36,2.341-16.521-3.776l-20.801-184.02c-.116-5.728,4.554-10.543,10.249-10.65Z" fill="#231f20"/><path d="M729.506,179.407l-34.358-313.182-215.452,230.087,249.81,83.095ZM644.419-42.986c2.831-3.848,12.827-14.44,16.509-17.519,5.464-4.569,13.36-2.341,16.521,3.776l20.801,184.02c.116,5.728-4.554,10.543-10.249,10.65-3.889.073-20.546-5.529-23.834-7.797-.66-.455-2.187-1.828-2.59-2.46-1.853-2.906-2.542-12.528-3.039-16.457-6.206-49.04-10.379-98.381-16.509-147.437.106-2.65.828-4.651,2.391-6.775ZM604.121.411c3.069-2.619,7.606-3.231,11.264-1.556,3.052,1.398,5.476,4.778,6.012,8.072,5.206,31.988,6.064,65.881,10.97,98.048.303,7.712-6.308,12.369-13.57,10.742l-78.237-25.996c-6.364-2.693-8.97-10.003-5.208-15.99L604.121.411Z" fill="#231f20"/><path d="M993.045-41.68l-249.81-83.095,34.358,313.182,215.452-230.087ZM853.943-61.086l78.237,25.996c6.364,2.693,8.97,10.003,5.208,15.99l-68.768,73.321c-3.069,2.619-7.606,3.231-11.264,1.556-3.052-1.397-5.476-4.777-6.012-8.072-5.206-31.988-6.064-65.881-10.97-98.048-.303-7.712,6.308-12.369,13.57-10.743ZM784.74-83.309c3.889-.073,20.546,5.529,23.834,7.797.66.455,2.187,1.829,2.59,2.461,1.853,2.906,2.542,12.528,3.039,16.456,6.206,49.04,10.379,98.381,16.509,147.437-.106,2.65-.828,4.651-2.391,6.775-2.831,3.848-12.827,14.44-16.509,17.519-5.464,4.569-13.36,2.341-16.521-3.776l-20.801-184.02c-.116-5.728,4.554-10.543,10.249-10.65Z" fill="#231f20"/><path d="M1071.766,293.255l-34.358-313.182-215.452,230.087,249.81,83.095ZM986.68,70.862c2.831-3.848,12.827-14.44,16.509-17.519,5.464-4.569,13.36-2.341,16.521,3.776l20.801,184.02c.116,5.728-4.554,10.543-10.249,10.65-3.889.073-20.546-5.529-23.834-7.797-.66-.455-2.187-1.829-2.59-2.46-1.853-2.906-2.542-12.528-3.039-16.457-6.206-49.04-10.379-98.381-16.509-147.437.106-2.65.828-4.651,2.391-6.775ZM946.382,114.259c3.069-2.619,7.606-3.231,11.264-1.556,3.052,1.397,5.476,4.777,6.012,8.072,5.206,31.987,6.064,65.881,10.97,98.048.303,7.712-6.308,12.369-13.57,10.743l-78.237-25.996c-6.364-2.693-8.97-10.003-5.208-15.99l68.769-73.321Z" fill="#231f20"/><path d="M1335.306,72.167l-249.81-83.095,34.358,313.182,215.452-230.087ZM1196.204,52.761l78.237,25.996c6.364,2.693,8.97,10.003,5.208,15.99l-68.768,73.321c-3.069,2.619-7.606,3.231-11.264,1.556-3.052-1.398-5.476-4.777-6.012-8.072-5.206-31.988-6.064-65.881-10.97-98.048-.303-7.712,6.308-12.369,13.57-10.742ZM1127.001,30.538c3.889-.073,20.546,5.529,23.834,7.797.66.455,2.187,1.829,2.59,2.461,1.853,2.906,2.542,12.528,3.039,16.456,6.206,49.04,10.379,98.382,16.509,147.437-.106,2.65-.828,4.651-2.391,6.775-2.831,3.848-12.827,14.44-16.509,17.519-5.464,4.569-13.36,2.341-16.521-3.776l-20.801-184.02c-.116-5.728,4.554-10.543,10.249-10.65Z" fill="#231f20"/><path d="M1414.027,407.102l-34.358-313.182-215.452,230.087,249.81,83.095ZM1328.941,184.71c2.831-3.848,12.827-14.44,16.509-17.519,5.464-4.569,13.36-2.341,16.521,3.776l20.801,184.02c.117,5.728-4.554,10.543-10.249,10.65-3.889.073-20.546-5.529-23.833-7.797-.66-.455-2.187-1.829-2.591-2.461-1.853-2.906-2.542-12.528-3.039-16.456-6.206-49.04-10.379-98.382-16.509-147.437.106-2.65.828-4.651,2.391-6.775ZM1288.643,228.107c3.069-2.619,7.606-3.231,11.264-1.556,3.052,1.398,5.476,4.777,6.012,8.072,5.206,31.988,6.064,65.881,10.97,98.048.303,7.712-6.308,12.369-13.57,10.742l-78.237-25.996c-6.364-2.693-8.97-10.003-5.208-15.99l68.769-73.321Z" fill="#231f20"/><path d="M-184.463,222.217L30.989-7.869l-249.81-83.095,34.358,313.182ZM-108.114-27.276L-29.877-1.28c6.364,2.693,8.97,10.003,5.208,15.99l-68.768,73.321c-3.069,2.619-7.606,3.231-11.264,1.556-3.052-1.397-5.476-4.777-6.012-8.072-5.206-31.988-6.064-65.881-10.97-98.048-.303-7.712,6.308-12.369,13.57-10.742ZM-177.317-49.499c3.889-.073,20.546,5.529,23.834,7.797.66.455,2.187,1.828,2.59,2.46,1.853,2.906,2.542,12.528,3.039,16.457,6.206,49.04,10.379,98.381,16.509,147.437-.106,2.65-.828,4.651-2.391,6.775-2.831,3.848-12.827,14.44-16.509,17.519-5.464,4.569-13.36,2.341-16.521-3.776l-20.801-184.02c-.116-5.728,4.554-10.543,10.249-10.65Z" fill="#231f20"/><path d="M109.709,327.066L75.351,13.883l-215.452,230.087,249.81,83.095ZM24.623,104.673c2.831-3.848,12.827-14.44,16.509-17.519,5.464-4.569,13.36-2.341,16.521,3.776l20.801,184.02c.116,5.728-4.554,10.543-10.249,10.65-3.889.073-20.546-5.529-23.834-7.797-.66-.455-2.187-1.829-2.59-2.46-1.853-2.906-2.542-12.528-3.039-16.457-6.206-49.04-10.379-98.381-16.509-147.437.106-2.65.828-4.651,2.391-6.775ZM-15.675,148.07c3.069-2.619,7.606-3.231,11.264-1.556,3.052,1.398,5.476,4.778,6.012,8.072,5.206,31.987,6.064,65.881,10.97,98.048.303,7.712-6.308,12.369-13.57,10.743l-78.237-25.996c-6.364-2.693-8.97-10.003-5.208-15.99L-15.675,148.07Z" fill="#231f20"/><path d="M157.797,336.065l215.452-230.087L123.439,22.883l34.358,313.182ZM234.147,86.572l78.237,25.996c6.364,2.693,8.97,10.003,5.208,15.99l-68.768,73.321c-3.069,2.619-7.606,3.231-11.264,1.556-3.052-1.398-5.476-4.777-6.012-8.072-5.206-31.987-6.064-65.881-10.97-98.048-.303-7.712,6.308-12.369,13.57-10.742ZM164.944,64.349c3.889-.073,20.546,5.529,23.834,7.797.66.455,2.187,1.829,2.59,2.46,1.853,2.906,2.542,12.528,3.039,16.457,6.206,49.04,10.379,98.382,16.509,147.437-.106,2.65-.828,4.651-2.391,6.775-2.831,3.848-12.827,14.441-16.509,17.519-5.464,4.569-13.36,2.341-16.521-3.776l-20.801-184.02c-.116-5.728,4.554-10.543,10.249-10.65Z" fill="#231f20"/><path d="M451.97,440.913l-34.358-313.182-215.452,230.087,249.81,83.095ZM366.884,218.52c2.831-3.848,12.827-14.44,16.509-17.519,5.464-4.569,13.36-2.341,16.521,3.776l20.801,184.02c.116,5.728-4.554,10.543-10.249,10.65-3.889.073-20.546-5.529-23.834-7.797-.66-.455-2.187-1.829-2.59-2.461-1.853-2.906-2.542-12.528-3.039-16.456-6.206-49.04-10.379-98.382-16.509-147.437.106-2.65.828-4.651,2.391-6.776ZM326.586,261.918c3.069-2.619,7.606-3.231,11.264-1.556,3.052,1.398,5.476,4.777,6.012,8.072,5.206,31.988,6.064,65.881,10.97,98.048.303,7.712-6.308,12.369-13.57,10.742l-78.237-25.996c-6.364-2.693-8.97-10.003-5.208-15.99l68.769-73.321Z" fill="#231f20"/><path d="M500.058,449.913l215.452-230.087-249.81-83.095,34.358,313.182ZM576.408,200.42l78.237,25.996c6.364,2.693,8.97,10.003,5.208,15.99l-68.768,73.321c-3.069,2.619-7.606,3.231-11.264,1.556-3.052-1.398-5.476-4.778-6.012-8.072-5.206-31.988-6.064-65.881-10.97-98.048-.303-7.712,6.308-12.369,13.57-10.743ZM507.205,178.197c3.889-.073,20.546,5.529,23.834,7.797.66.455,2.187,1.829,2.59,2.46,1.853,2.906,2.542,12.528,3.039,16.457,6.206,49.04,10.379,98.381,16.509,147.437-.106,2.65-.828,4.651-2.391,6.775-2.831,3.848-12.827,14.44-16.509,17.519-5.464,4.569-13.36,2.341-16.521-3.776l-20.801-184.02c-.116-5.728,4.554-10.543,10.249-10.65Z" fill="#231f20"/><path d="M794.231,554.761l-34.358-313.182-215.452,230.087,249.81,83.095ZM709.145,332.368c2.831-3.848,12.827-14.44,16.509-17.519,5.464-4.569,13.36-2.341,16.521,3.776l20.801,184.02c.116,5.728-4.554,10.543-10.249,10.65-3.889.073-20.546-5.529-23.834-7.797-.66-.455-2.187-1.828-2.59-2.46-1.853-2.906-2.542-12.529-3.039-16.457-6.206-49.04-10.379-98.381-16.509-147.437.106-2.65.828-4.651,2.391-6.775ZM668.847,375.765c3.069-2.619,7.606-3.231,11.264-1.556,3.052,1.397,5.476,4.778,6.012,8.072,5.206,31.987,6.064,65.881,10.97,98.048.303,7.712-6.308,12.369-13.57,10.743l-78.237-25.996c-6.364-2.693-8.97-10.003-5.208-15.99l68.768-73.321Z" fill="#231f20"/><path d="M842.319,563.76l215.452-230.087-249.81-83.095,34.358,313.182ZM918.669,314.267l78.237,25.996c6.364,2.693,8.97,10.003,5.208,15.99l-68.768,73.321c-3.069,2.619-7.606,3.231-11.264,1.556-3.052-1.398-5.476-4.777-6.012-8.072-5.206-31.988-6.064-65.881-10.97-98.048-.303-7.712,6.308-12.369,13.57-10.742ZM849.466,292.044c3.889-.073,20.546,5.529,23.834,7.797.66.455,2.187,1.829,2.59,2.461,1.853,2.906,2.542,12.528,3.039,16.456,6.206,49.04,10.379,98.382,16.509,147.437-.106,2.65-.828,4.651-2.391,6.775-2.831,3.848-12.827,14.44-16.509,17.519-5.464,4.569-13.359,2.341-16.521-3.776l-20.801-184.02c-.116-5.728,4.554-10.543,10.249-10.65Z" fill="#231f20"/><path d="M1136.492,668.608l-34.358-313.182-215.452,230.087,249.81,83.095ZM1051.405,446.216c2.831-3.848,12.827-14.44,16.509-17.519,5.464-4.569,13.359-2.341,16.521,3.776l20.801,184.02c.116,5.728-4.554,10.543-10.249,10.65-3.889.073-20.546-5.529-23.834-7.797-.66-.455-2.187-1.829-2.59-2.461-1.853-2.906-2.542-12.528-3.039-16.456-6.206-49.04-10.379-98.382-16.509-147.437.106-2.65.828-4.651,2.391-6.775ZM1011.107,489.613c3.069-2.619,7.606-3.231,11.264-1.556,3.052,1.398,5.476,4.777,6.012,8.072,5.206,31.988,6.064,65.881,10.97,98.048.303,7.712-6.308,12.369-13.57,10.742l-78.237-25.996c-6.364-2.693-8.97-10.003-5.208-15.99l68.768-73.321Z" fill="#231f20"/><path d="M1184.58,677.608l215.452-230.087-249.81-83.095,34.358,313.182ZM1260.929,428.115l78.237,25.996c6.364,2.693,8.97,10.003,5.208,15.99l-68.768,73.321c-3.069,2.619-7.606,3.231-11.264,1.556-3.052-1.397-5.476-4.778-6.012-8.072-5.206-31.988-6.064-65.881-10.97-98.048-.303-7.712,6.308-12.369,13.57-10.743ZM1191.726,405.892c3.889-.073,20.546,5.529,23.834,7.797.66.455,2.187,1.828,2.59,2.46,1.853,2.906,2.542,12.528,3.039,16.457,6.206,49.04,10.379,98.381,16.509,147.437-.106,2.65-.828,4.651-2.391,6.775-2.831,3.848-12.827,14.44-16.509,17.519-5.464,4.569-13.359,2.341-16.521-3.776l-20.801-184.02c-.116-5.728,4.554-10.543,10.249-10.65Z" fill="#231f20"/><path d="M1478.752,782.456l-34.358-313.182-215.452,230.087,249.81,83.095ZM1393.666,560.063c2.831-3.848,12.827-14.44,16.509-17.519,5.464-4.569,13.359-2.341,16.521,3.776l20.801,184.02c.117,5.728-4.554,10.543-10.249,10.65-3.889.073-20.546-5.529-23.833-7.797-.66-.455-2.187-1.828-2.591-2.46-1.853-2.906-2.542-12.529-3.039-16.457-6.206-49.04-10.379-98.381-16.509-147.437.106-2.65.828-4.651,2.391-6.775ZM1353.368,603.46c3.069-2.619,7.606-3.231,11.264-1.556,3.052,1.397,5.476,4.778,6.012,8.072,5.206,31.988,6.064,65.881,10.97,98.048.303,7.712-6.308,12.369-13.57,10.743l-78.237-25.996c-6.364-2.693-8.97-10.003-5.208-15.99l68.769-73.321Z" fill="#231f20"/><path d="M-121.257,598.033l215.452-230.087-249.81-83.095,34.358,313.182ZM-44.907,348.54l78.237,25.996c6.364,2.693,8.97,10.003,5.208,15.99l-68.768,73.321c-3.069,2.619-7.606,3.231-11.264,1.556-3.052-1.398-5.476-4.778-6.012-8.072-5.206-31.987-6.064-65.881-10.97-98.048-.303-7.712,6.308-12.369,13.57-10.743ZM-114.11,326.317c3.889-.073,20.546,5.529,23.834,7.797.66.455,2.187,1.829,2.59,2.46,1.853,2.906,2.542,12.528,3.039,16.457,6.206,49.04,10.379,98.381,16.509,147.437-.106,2.65-.828,4.651-2.391,6.775-2.831,3.848-12.827,14.44-16.509,17.519-5.464,4.569-13.36,2.341-16.521-3.776l-20.801-184.02c-.116-5.728,4.554-10.543,10.249-10.65Z" fill="#231f20"/><path d="M138.558,389.699l-215.452,230.087,249.81,83.095-34.358-313.182ZM62.208,639.192l-78.237-25.996c-6.364-2.693-8.97-10.003-5.208-15.99l68.769-73.321c3.069-2.619,7.606-3.231,11.264-1.556,3.052,1.397,5.476,4.777,6.012,8.072,5.206,31.988,6.064,65.881,10.97,98.048.303,7.712-6.308,12.369-13.57,10.743ZM131.411,661.415c-3.889.073-20.546-5.529-23.834-7.797-.66-.455-2.187-1.828-2.59-2.46-1.853-2.906-2.542-12.528-3.039-16.457-6.206-49.04-10.379-98.381-16.509-147.437.106-2.65.828-4.651,2.391-6.775,2.831-3.848,12.827-14.44,16.509-17.519,5.464-4.569,13.36-2.341,16.521,3.776l20.801,184.02c.116,5.728-4.554,10.543-10.249,10.65Z" fill="#231f20"/><path d="M221.004,711.881l215.452-230.087-249.81-83.095,34.358,313.182ZM297.354,462.388l78.237,25.996c6.364,2.693,8.97,10.003,5.208,15.99l-68.768,73.321c-3.069,2.619-7.606,3.231-11.264,1.556-3.052-1.398-5.476-4.777-6.012-8.072-5.206-31.988-6.064-65.881-10.97-98.048-.303-7.712,6.308-12.369,13.57-10.742ZM228.151,440.165c3.889-.073,20.546,5.529,23.834,7.797.66.455,2.187,1.828,2.59,2.46,1.853,2.906,2.542,12.528,3.039,16.457,6.206,49.04,10.379,98.381,16.509,147.437-.106,2.65-.828,4.651-2.391,6.775-2.831,3.848-12.827,14.44-16.509,17.519-5.464,4.569-13.36,2.341-16.521-3.776l-20.801-184.02c-.116-5.728,4.554-10.543,10.249-10.65Z" fill="#231f20"/><path d="M265.367,733.634l249.81,83.095-34.358-313.182-215.452,230.087ZM404.469,753.04l-78.237-25.996c-6.364-2.693-8.97-10.003-5.208-15.99l68.769-73.321c3.069-2.619,7.606-3.231,11.264-1.556,3.052,1.398,5.476,4.778,6.012,8.072,5.206,31.987,6.064,65.881,10.97,98.048.303,7.712-6.308,12.369-13.57,10.742ZM473.672,775.263c-3.889.073-20.546-5.529-23.834-7.797-.66-.455-2.187-1.829-2.59-2.46-1.853-2.906-2.542-12.528-3.039-16.457-6.206-49.04-10.379-98.381-16.509-147.437.106-2.65.828-4.651,2.391-6.775,2.831-3.848,12.827-14.441,16.509-17.519,5.464-4.569,13.36-2.341,16.521,3.776l20.801,184.02c.116,5.728-4.554,10.543-10.249,10.65Z" fill="#231f20"/><path d="M563.265,825.729l215.452-230.087-249.81-83.095,34.358,313.183ZM639.614,576.235l78.237,25.996c6.364,2.693,8.97,10.003,5.208,15.99l-68.768,73.321c-3.069,2.619-7.606,3.231-11.264,1.556-3.052-1.398-5.476-4.778-6.012-8.072-5.206-31.987-6.064-65.881-10.97-98.048-.303-7.712,6.308-12.369,13.57-10.743ZM570.412,554.012c3.889-.073,20.546,5.529,23.834,7.797.66.455,2.187,1.829,2.59,2.46,1.853,2.906,2.542,12.528,3.039,16.457,6.206,49.04,10.379,98.381,16.509,147.437-.106,2.65-.828,4.651-2.391,6.775-2.831,3.848-12.827,14.44-16.509,17.519-5.464,4.569-13.36,2.341-16.521-3.776l-20.801-184.02c-.116-5.728,4.554-10.543,10.249-10.65Z" fill="#231f20"/><path d="M607.628,847.481l249.81,83.095-34.358-313.182-215.452,230.087ZM746.73,866.887l-78.237-25.996c-6.364-2.693-8.97-10.003-5.208-15.99l68.769-73.321c3.069-2.619,7.606-3.231,11.264-1.556,3.052,1.397,5.476,4.777,6.012,8.072,5.206,31.988,6.064,65.881,10.97,98.048.303,7.712-6.308,12.369-13.57,10.742ZM815.933,889.11c-3.889.073-20.546-5.529-23.834-7.797-.66-.455-2.187-1.828-2.59-2.46-1.853-2.906-2.542-12.528-3.039-16.457-6.206-49.04-10.379-98.381-16.509-147.437.106-2.65.828-4.651,2.391-6.775,2.831-3.848,12.827-14.44,16.509-17.519,5.464-4.569,13.36-2.341,16.521,3.776l20.801,184.02c.116,5.728-4.554,10.543-10.249,10.65Z" fill="#231f20"/><path d="M905.525,939.576l215.452-230.087-249.81-83.095,34.358,313.182ZM981.875,690.083l78.237,25.996c6.364,2.693,8.97,10.003,5.208,15.99l-68.768,73.321c-3.069,2.619-7.606,3.231-11.264,1.556-3.052-1.397-5.476-4.777-6.012-8.072-5.206-31.988-6.064-65.881-10.97-98.048-.303-7.712,6.308-12.369,13.57-10.742ZM912.672,667.86c3.889-.073,20.546,5.529,23.834,7.797.66.455,2.187,1.828,2.59,2.46,1.853,2.906,2.542,12.528,3.039,16.457,6.206,49.04,10.379,98.381,16.509,147.437-.106,2.65-.828,4.651-2.391,6.775-2.831,3.848-12.827,14.44-16.509,17.519-5.464,4.569-13.36,2.342-16.521-3.776l-20.801-184.02c-.116-5.728,4.554-10.543,10.249-10.65Z" fill="#231f20"/><path d="M949.888,961.329l249.81,83.095-34.358-313.183-215.452,230.087ZM1088.99,980.735l-78.237-25.996c-6.364-2.693-8.97-10.003-5.208-15.99l68.769-73.321c3.069-2.619,7.606-3.231,11.264-1.556,3.052,1.398,5.476,4.778,6.012,8.072,5.206,31.987,6.064,65.881,10.97,98.048.303,7.712-6.308,12.369-13.57,10.743ZM1158.193,1002.958c-3.889.073-20.546-5.529-23.834-7.797-.66-.455-2.187-1.829-2.59-2.46-1.853-2.906-2.542-12.528-3.039-16.457-6.206-49.04-10.379-98.381-16.509-147.437.106-2.65.828-4.651,2.391-6.775,2.831-3.848,12.827-14.44,16.509-17.519,5.464-4.569,13.36-2.341,16.521,3.776l20.801,184.02c.116,5.728-4.554,10.543-10.249,10.65Z" fill="#231f20"/><path d="M1463.238,823.337l-249.81-83.095,34.358,313.182,215.452-230.087ZM1324.136,803.931l78.237,25.996c6.364,2.693,8.97,10.003,5.208,15.99l-68.768,73.321c-3.069,2.619-7.606,3.231-11.264,1.556-3.052-1.398-5.476-4.778-6.012-8.072-5.206-31.987-6.064-65.881-10.97-98.048-.303-7.712,6.308-12.369,13.57-10.742ZM1254.933,781.708c3.889-.073,20.546,5.529,23.834,7.797.66.455,2.187,1.829,2.59,2.46,1.853,2.906,2.542,12.528,3.039,16.457,6.206,49.04,10.379,98.381,16.509,147.437-.106,2.65-.828,4.651-2.391,6.775-2.831,3.848-12.827,14.441-16.509,17.519-5.464,4.569-13.36,2.341-16.521-3.776l-20.801-184.02c-.116-5.728,4.554-10.543,10.249-10.65Z" fill="#231f20"/><path d="M161.813,742.078l-249.81-83.095,34.358,313.182,215.452-230.087ZM22.71,722.672l78.237,25.996c6.364,2.693,8.97,10.003,5.208,15.99l-68.769,73.321c-3.069,2.619-7.606,3.231-11.264,1.556-3.052-1.398-5.476-4.777-6.012-8.072-5.206-31.988-6.064-65.881-10.97-98.048-.303-7.712,6.308-12.369,13.57-10.742ZM-46.492,700.449c3.889-.073,20.546,5.529,23.834,7.797.66.455,2.187,1.829,2.59,2.461,1.853,2.906,2.542,12.528,3.039,16.456,6.206,49.04,10.379,98.382,16.509,147.437-.106,2.65-.828,4.651-2.391,6.775-2.831,3.849-12.827,14.44-16.509,17.519-5.464,4.569-13.36,2.341-16.521-3.776l-20.801-184.02c-.116-5.728,4.554-10.543,10.249-10.65Z" fill="#231f20"/><path d="M240.534,1077.013l-34.358-313.182L-9.276,993.918l249.81,83.095ZM155.447,854.621c2.831-3.848,12.827-14.441,16.509-17.519,5.464-4.569,13.36-2.341,16.521,3.776l20.801,184.02c.116,5.728-4.554,10.543-10.249,10.65-3.889.073-20.546-5.529-23.834-7.797-.66-.455-2.187-1.829-2.59-2.461-1.853-2.906-2.542-12.528-3.039-16.456-6.206-49.04-10.379-98.382-16.509-147.437.106-2.65.828-4.651,2.391-6.775ZM115.149,898.018c3.069-2.619,7.606-3.231,11.264-1.556,3.052,1.398,5.476,4.777,6.012,8.072,5.206,31.987,6.064,65.881,10.97,98.048.303,7.712-6.308,12.369-13.57,10.742l-78.237-25.996c-6.364-2.693-8.97-10.003-5.208-15.99l68.768-73.321Z" fill="#231f20"/><path d="M254.263,772.831l34.358,313.182,215.452-230.087-249.81-83.095ZM339.35,995.224c-2.831,3.848-12.827,14.44-16.509,17.519-5.464,4.569-13.36,2.341-16.521-3.776l-20.801-184.02c-.116-5.728,4.554-10.543,10.249-10.65,3.889-.073,20.546,5.529,23.834,7.797.66.455,2.187,1.829,2.59,2.46,1.853,2.906,2.542,12.528,3.039,16.457,6.206,49.04,10.379,98.381,16.509,147.437-.106,2.65-.828,4.651-2.391,6.775ZM379.648,951.826c-3.069,2.619-7.606,3.231-11.264,1.556-3.052-1.398-5.476-4.778-6.012-8.072-5.206-31.987-6.064-65.881-10.97-98.048-.303-7.712,6.308-12.369,13.57-10.743l78.237,25.996c6.364,2.693,8.97,10.003,5.208,15.99l-68.769,73.321Z" fill="#231f20"/><path d="M582.794,1190.861l-34.358-313.182-215.452,230.087,249.81,83.095ZM497.708,968.468c2.831-3.848,12.827-14.44,16.509-17.519,5.464-4.569,13.36-2.341,16.521,3.776l20.801,184.02c.116,5.728-4.554,10.543-10.249,10.65-3.889.073-20.546-5.529-23.834-7.797-.66-.455-2.187-1.828-2.59-2.46-1.853-2.906-2.542-12.528-3.039-16.457-6.206-49.04-10.379-98.381-16.509-147.437.106-2.65.828-4.651,2.391-6.775ZM457.41,1011.865c3.069-2.619,7.606-3.231,11.264-1.556,3.052,1.397,5.476,4.777,6.012,8.072,5.206,31.988,6.064,65.881,10.97,98.048.303,7.712-6.308,12.369-13.57,10.742l-78.237-25.996c-6.364-2.693-8.97-10.003-5.208-15.99l68.768-73.321Z" fill="#231f20"/><path d="M596.524,886.679l34.358,313.182,215.452-230.087-249.81-83.095ZM681.611,1109.071c-2.831,3.848-12.827,14.44-16.509,17.519-5.464,4.569-13.36,2.341-16.521-3.776l-20.801-184.02c-.116-5.728,4.554-10.543,10.249-10.65,3.889-.073,20.546,5.529,23.834,7.797.66.455,2.187,1.828,2.59,2.46,1.853,2.906,2.542,12.528,3.039,16.457,6.206,49.04,10.379,98.381,16.509,147.437-.106,2.65-.828,4.651-2.391,6.775ZM721.908,1065.674c-3.069,2.619-7.606,3.231-11.264,1.556-3.052-1.398-5.476-4.777-6.012-8.072-5.206-31.988-6.064-65.881-10.97-98.048-.303-7.712,6.308-12.369,13.57-10.742l78.237,25.996c6.364,2.693,8.97,10.003,5.208,15.99l-68.769,73.321Z" fill="#231f20"/><path d="M925.055,1304.709l-34.358-313.182-215.452,230.087,249.81,83.095ZM839.969,1082.316c2.831-3.848,12.827-14.44,16.509-17.519,5.464-4.569,13.36-2.341,16.521,3.776l20.801,184.02c.116,5.728-4.554,10.543-10.249,10.65-3.889.073-20.546-5.529-23.834-7.797-.66-.455-2.187-1.829-2.59-2.46-1.853-2.906-2.542-12.528-3.039-16.457-6.206-49.04-10.379-98.381-16.509-147.437.106-2.65.828-4.651,2.391-6.775ZM799.671,1125.713c3.069-2.619,7.606-3.231,11.264-1.556,3.052,1.398,5.476,4.778,6.012,8.072,5.206,31.987,6.064,65.881,10.97,98.048.303,7.712-6.308,12.369-13.57,10.742l-78.237-25.996c-6.364-2.693-8.97-10.003-5.208-15.99l68.768-73.321Z" fill="#231f20"/><path d="M938.785,1000.526l34.358,313.182,215.452-230.087-249.81-83.095ZM1023.871,1222.919c-2.831,3.848-12.827,14.44-16.509,17.519-5.464,4.569-13.36,2.341-16.521-3.776l-20.801-184.02c-.116-5.728,4.554-10.543,10.249-10.65,3.889-.073,20.546,5.529,23.834,7.797.66.455,2.187,1.829,2.59,2.46,1.853,2.906,2.542,12.528,3.039,16.457,6.206,49.04,10.379,98.381,16.509,147.437-.106,2.65-.828,4.651-2.391,6.775ZM1064.169,1179.522c-3.069,2.619-7.606,3.231-11.264,1.556-3.052-1.398-5.476-4.778-6.012-8.072-5.206-31.987-6.064-65.881-10.97-98.048-.303-7.712,6.308-12.369,13.57-10.743l78.237,25.996c6.364,2.693,8.97,10.003,5.208,15.99l-68.769,73.321Z" fill="#231f20"/><path d="M1267.316,1418.556l-34.358-313.182-215.452,230.087,249.81,83.095ZM1182.229,1196.163c2.831-3.848,12.827-14.44,16.509-17.519,5.464-4.569,13.36-2.341,16.521,3.776l20.801,184.02c.116,5.728-4.554,10.543-10.249,10.65-3.889.073-20.546-5.529-23.834-7.797-.66-.455-2.187-1.828-2.59-2.46-1.853-2.906-2.542-12.528-3.039-16.457-6.206-49.04-10.379-98.381-16.509-147.437.106-2.65.828-4.651,2.391-6.775ZM1141.932,1239.561c3.069-2.619,7.606-3.231,11.264-1.556,3.052,1.397,5.476,4.777,6.012,8.072,5.206,31.988,6.064,65.881,10.97,98.048.303,7.712-6.308,12.369-13.57,10.742l-78.237-25.996c-6.364-2.693-8.97-10.003-5.208-15.99l68.768-73.321Z" fill="#231f20"/><path d="M1281.046,1114.374l34.358,313.182,215.452-230.087-249.81-83.095ZM1366.132,1336.767c-2.831,3.848-12.827,14.44-16.509,17.519-5.464,4.569-13.36,2.341-16.521-3.776l-20.801-184.02c-.116-5.728,4.554-10.543,10.249-10.65,3.889-.073,20.546,5.529,23.834,7.797.66.455,2.187,1.828,2.59,2.46,1.853,2.906,2.542,12.528,3.039,16.457,6.206,49.04,10.379,98.381,16.509,147.437-.106,2.65-.828,4.651-2.391,6.775ZM1406.43,1293.369c-3.069,2.619-7.606,3.231-11.264,1.556-3.052-1.397-5.476-4.777-6.012-8.072-5.206-31.988-6.064-65.881-10.97-98.048-.303-7.712,6.308-12.369,13.57-10.742l78.237,25.996c6.364,2.693,8.97,10.003,5.208,15.99l-68.769,73.321Z" fill="#231f20"/><path d="M-24.791,1034.799l34.358,313.182,215.452-230.087-249.81-83.095ZM60.296,1257.192c-2.831,3.848-12.827,14.44-16.509,17.519-5.464,4.569-13.359,2.341-16.521-3.776l-20.801-184.02c-.116-5.728,4.554-10.543,10.249-10.65,3.889-.073,20.546,5.529,23.834,7.797.66.455,2.187,1.828,2.59,2.46,1.853,2.906,2.542,12.528,3.039,16.457,6.206,49.04,10.379,98.381,16.509,147.437-.106,2.65-.828,4.651-2.391,6.775ZM100.594,1213.795c-3.069,2.619-7.606,3.231-11.264,1.556-3.052-1.397-5.476-4.778-6.012-8.072-5.206-31.988-6.064-65.881-10.97-98.048-.303-7.712,6.308-12.369,13.57-10.743l78.237,25.996c6.364,2.693,8.97,10.003,5.208,15.99l-68.768,73.321Z" fill="#231f20"/><path d="M53.93,1369.734l249.81,83.095-34.358-313.182-215.452,230.087ZM193.032,1389.14l-78.237-25.996c-6.364-2.693-8.97-10.003-5.208-15.99l68.768-73.321c3.069-2.619,7.606-3.231,11.264-1.556,3.052,1.397,5.476,4.778,6.012,8.072,5.206,31.988,6.064,65.881,10.97,98.048.303,7.712-6.308,12.369-13.57,10.743ZM262.235,1411.363c-3.889.073-20.546-5.529-23.834-7.797-.66-.455-2.187-1.828-2.59-2.46-1.853-2.906-2.542-12.529-3.039-16.457-6.206-49.04-10.379-98.381-16.509-147.437.106-2.65.828-4.651,2.391-6.775,2.831-3.848,12.827-14.44,16.509-17.519,5.464-4.569,13.359-2.341,16.521,3.776l20.801,184.02c.116,5.728-4.554,10.543-10.249,10.65Z" fill="#231f20"/><path d="M317.47,1148.647l34.358,313.182,215.452-230.087-249.81-83.095ZM402.556,1371.04c-2.831,3.848-12.827,14.44-16.509,17.519-5.464,4.569-13.359,2.341-16.521-3.776l-20.801-184.02c-.116-5.728,4.554-10.543,10.249-10.65,3.889-.073,20.546,5.529,23.834,7.797.66.455,2.187,1.829,2.59,2.461,1.853,2.906,2.542,12.528,3.039,16.456,6.206,49.04,10.379,98.382,16.509,147.437-.106,2.65-.828,4.651-2.391,6.775ZM442.854,1327.642c-3.069,2.619-7.606,3.231-11.264,1.556-3.052-1.398-5.476-4.777-6.012-8.072-5.206-31.988-6.064-65.881-10.97-98.048-.303-7.712,6.308-12.369,13.57-10.742l78.237,25.996c6.364,2.693,8.97,10.003,5.208,15.99l-68.768,73.321Z" fill="#231f20"/><path d="M396.191,1483.582l249.81,83.095-34.358-313.182-215.452,230.087ZM535.293,1502.988l-78.237-25.996c-6.364-2.693-8.97-10.003-5.208-15.99l68.768-73.321c3.069-2.619,7.606-3.231,11.264-1.556,3.052,1.398,5.476,4.777,6.012,8.072,5.206,31.988,6.064,65.881,10.97,98.048.303,7.712-6.308,12.369-13.57,10.742ZM604.496,1525.211c-3.889.073-20.546-5.529-23.834-7.797-.66-.455-2.187-1.829-2.59-2.461-1.853-2.906-2.542-12.528-3.039-16.456-6.206-49.04-10.379-98.382-16.509-147.437.106-2.65.828-4.651,2.391-6.775,2.831-3.848,12.827-14.44,16.509-17.519,5.464-4.569,13.359-2.341,16.521,3.776l20.801,184.02c.116,5.728-4.554,10.543-10.249,10.65Z" fill="#231f20"/><path d="M659.731,1262.494l34.358,313.182,215.452-230.087-249.81-83.095ZM744.817,1484.887c-2.831,3.848-12.827,14.44-16.509,17.519-5.464,4.569-13.359,2.341-16.521-3.776l-20.801-184.02c-.116-5.728,4.554-10.543,10.249-10.65,3.889-.073,20.546,5.529,23.834,7.797.66.455,2.187,1.828,2.59,2.46,1.853,2.906,2.542,12.529,3.039,16.457,6.206,49.04,10.379,98.381,16.509,147.437-.106,2.65-.828,4.651-2.391,6.775ZM785.115,1441.49c-3.069,2.619-7.606,3.231-11.264,1.556-3.052-1.397-5.476-4.778-6.012-8.072-5.206-31.987-6.064-65.881-10.97-98.048-.303-7.712,6.308-12.369,13.57-10.743l78.237,25.996c6.364,2.693,8.97,10.003,5.208,15.99l-68.768,73.321Z" fill="#231f20"/><path d="M738.452,1597.429l249.81,83.095-34.358-313.182-215.452,230.087ZM877.554,1616.836l-78.237-25.996c-6.364-2.693-8.97-10.003-5.208-15.99l68.768-73.321c3.069-2.619,7.606-3.231,11.264-1.556,3.052,1.398,5.476,4.778,6.012,8.072,5.206,31.988,6.064,65.881,10.97,98.048.303,7.712-6.308,12.369-13.57,10.743ZM946.757,1639.058c-3.889.073-20.546-5.529-23.834-7.797-.66-.455-2.187-1.829-2.59-2.46-1.853-2.906-2.542-12.529-3.039-16.457-6.206-49.04-10.379-98.381-16.509-147.437.106-2.65.828-4.651,2.391-6.775,2.831-3.848,12.827-14.44,16.509-17.519,5.464-4.569,13.359-2.341,16.521,3.776l20.801,184.02c.116,5.728-4.554,10.543-10.249,10.65Z" fill="#231f20"/><path d="M1001.991,1376.342l34.358,313.182,215.452-230.087-249.81-83.095ZM1087.078,1598.735c-2.831,3.848-12.827,14.44-16.509,17.519-5.464,4.569-13.36,2.342-16.521-3.776l-20.801-184.02c-.116-5.728,4.554-10.543,10.249-10.65,3.889-.073,20.546,5.529,23.834,7.797.66.455,2.187,1.829,2.59,2.461,1.853,2.906,2.542,12.528,3.039,16.456,6.206,49.04,10.379,98.382,16.509,147.437-.106,2.65-.828,4.651-2.391,6.776ZM1127.376,1555.337c-3.069,2.619-7.606,3.231-11.264,1.556-3.052-1.398-5.476-4.777-6.012-8.072-5.206-31.988-6.064-65.881-10.97-98.048-.303-7.712,6.308-12.369,13.57-10.742l78.237,25.996c6.364,2.693,8.97,10.003,5.208,15.99l-68.768,73.321Z" fill="#231f20"/><path d="M1296.164,1481.19l-215.452,230.087,249.81,83.095-34.358-313.183ZM1219.815,1730.683l-78.237-25.996c-6.364-2.693-8.97-10.003-5.208-15.99l68.768-73.321c3.069-2.619,7.606-3.231,11.264-1.556,3.052,1.398,5.476,4.777,6.012,8.072,5.206,31.988,6.064,65.881,10.97,98.048.303,7.712-6.308,12.369-13.57,10.743ZM1289.017,1752.906c-3.889.073-20.546-5.529-23.834-7.797-.66-.455-2.187-1.829-2.59-2.461-1.853-2.906-2.542-12.528-3.039-16.456-6.206-49.04-10.379-98.382-16.509-147.437.106-2.65.828-4.651,2.391-6.776,2.831-3.848,12.827-14.44,16.509-17.519,5.464-4.569,13.36-2.341,16.521,3.776l20.801,184.019c.116,5.728-4.554,10.543-10.249,10.65Z" fill="#231f20"/><path d="M-220.713,1630.018l249.81,83.095L-5.261,1399.932l-215.452,230.087ZM-81.611,1649.425l-78.237-25.996c-6.364-2.693-8.97-10.003-5.208-15.99l68.768-73.321c3.069-2.619,7.606-3.231,11.264-1.556,3.052,1.397,5.476,4.778,6.012,8.072,5.206,31.987,6.064,65.881,10.97,98.048.303,7.712-6.308,12.369-13.57,10.743ZM-12.408,1671.648c-3.889.073-20.546-5.529-23.834-7.797-.66-.455-2.187-1.829-2.59-2.46-1.853-2.906-2.542-12.529-3.039-16.457-6.206-49.04-10.379-98.381-16.509-147.437.106-2.65.828-4.651,2.391-6.775,2.831-3.848,12.827-14.44,16.509-17.519,5.464-4.569,13.36-2.341,16.521,3.776l20.801,184.02c.116,5.728-4.554,10.543-10.249,10.65Z" fill="#231f20"/><path d="M292.637,1492.027l-249.81-83.095,34.358,313.182,215.452-230.087ZM153.535,1472.62l78.237,25.996c6.364,2.693,8.97,10.003,5.208,15.99l-68.769,73.321c-3.069,2.619-7.606,3.231-11.264,1.556-3.052-1.398-5.476-4.777-6.012-8.072-5.206-31.988-6.064-65.881-10.97-98.048-.303-7.712,6.308-12.369,13.57-10.742ZM84.332,1450.397c3.889-.073,20.546,5.529,23.834,7.797.66.455,2.187,1.829,2.59,2.461,1.853,2.906,2.542,12.528,3.039,16.456,6.206,49.04,10.379,98.382,16.509,147.437-.106,2.65-.828,4.651-2.391,6.776-2.831,3.848-12.827,14.44-16.509,17.519-5.464,4.569-13.36,2.341-16.521-3.776l-20.801-184.02c-.116-5.728,4.554-10.543,10.249-10.65Z" fill="#231f20"/><path d="M337,1513.779l-215.452,230.087,249.81,83.095-34.358-313.182ZM260.65,1763.272l-78.237-25.996c-6.364-2.693-8.97-10.003-5.208-15.99l68.768-73.321c3.069-2.619,7.606-3.231,11.264-1.556,3.052,1.398,5.476,4.777,6.012,8.072,5.206,31.988,6.064,65.881,10.97,98.048.303,7.712-6.308,12.369-13.57,10.742ZM329.853,1785.495c-3.889.073-20.546-5.529-23.834-7.797-.66-.455-2.187-1.829-2.59-2.461-1.853-2.906-2.542-12.528-3.039-16.456-6.206-49.04-10.379-98.382-16.509-147.437.106-2.65.828-4.651,2.391-6.776,2.831-3.848,12.827-14.44,16.509-17.519,5.464-4.569,13.36-2.342,16.521,3.776l20.801,184.02c.116,5.728-4.554,10.543-10.249,10.65Z" fill="#231f20"/><path d="M634.898,1605.874l-249.81-83.095,34.358,313.183,215.452-230.087ZM495.795,1586.468l78.237,25.996c6.364,2.693,8.97,10.003,5.208,15.99l-68.769,73.321c-3.069,2.619-7.606,3.231-11.264,1.556-3.052-1.398-5.476-4.778-6.012-8.072-5.206-31.988-6.064-65.881-10.97-98.048-.303-7.712,6.308-12.369,13.57-10.743ZM426.592,1564.245c3.889-.073,20.546,5.529,23.834,7.797.66.455,2.187,1.829,2.59,2.46,1.853,2.906,2.542,12.529,3.039,16.457,6.206,49.04,10.379,98.381,16.509,147.437-.106,2.65-.828,4.651-2.391,6.775-2.831,3.848-12.827,14.44-16.509,17.519-5.464,4.569-13.36,2.342-16.521-3.776l-20.801-184.02c-.116-5.728,4.554-10.543,10.249-10.65Z" fill="#231f20"/><path d="M679.26,1627.627l-215.452,230.087,249.81,83.095-34.358-313.182ZM602.911,1877.12l-78.237-25.996c-6.364-2.692-8.97-10.003-5.208-15.99l68.768-73.321c3.069-2.619,7.606-3.231,11.264-1.556,3.052,1.397,5.476,4.777,6.012,8.072,5.206,31.987,6.064,65.881,10.97,98.048.303,7.712-6.308,12.369-13.57,10.743ZM672.114,1899.343c-3.889.073-20.546-5.529-23.834-7.797-.66-.455-2.187-1.828-2.59-2.46-1.853-2.906-2.542-12.528-3.039-16.457-6.206-49.04-10.379-98.381-16.509-147.437.106-2.65.828-4.651,2.391-6.775,2.831-3.848,12.827-14.44,16.509-17.519,5.464-4.569,13.36-2.341,16.521,3.776l20.801,184.02c.116,5.728-4.554,10.543-10.249,10.65Z" fill="#231f20"/><path d="M977.158,1719.722l-249.81-83.095,34.358,313.182,215.452-230.087ZM838.056,1700.316l78.237,25.996c6.364,2.693,8.97,10.003,5.208,15.99l-68.769,73.321c-3.069,2.619-7.606,3.231-11.264,1.556-3.052-1.398-5.476-4.777-6.012-8.072-5.206-31.987-6.064-65.881-10.97-98.048-.303-7.712,6.308-12.369,13.57-10.742ZM768.853,1678.092c3.889-.073,20.546,5.529,23.834,7.797.66.455,2.187,1.829,2.59,2.461,1.853,2.906,2.542,12.528,3.039,16.456,6.206,49.04,10.379,98.382,16.509,147.437-.106,2.649-.828,4.651-2.391,6.775-2.831,3.849-12.827,14.441-16.509,17.519-5.464,4.569-13.36,2.341-16.521-3.776l-20.801-184.02c-.116-5.728,4.554-10.543,10.249-10.65Z" fill="#231f20"/><path d="M1021.521,1741.474l-215.452,230.087,249.81,83.095-34.358-313.182ZM945.171,1990.967l-78.237-25.996c-6.364-2.693-8.97-10.003-5.208-15.99l68.769-73.321c3.069-2.619,7.606-3.231,11.264-1.556,3.052,1.398,5.476,4.777,6.012,8.072,5.206,31.987,6.064,65.881,10.97,98.048.303,7.712-6.308,12.369-13.57,10.742ZM1014.374,2013.191c-3.889.073-20.546-5.529-23.834-7.797-.66-.455-2.187-1.829-2.59-2.461-1.853-2.906-2.542-12.528-3.039-16.456-6.206-49.04-10.379-98.382-16.509-147.437.106-2.649.828-4.651,2.391-6.775,2.831-3.849,12.827-14.441,16.509-17.519,5.464-4.569,13.36-2.341,16.521,3.776l20.801,184.02c.116,5.728-4.554,10.543-10.249,10.65Z" fill="#231f20"/><path d="M1103.967,2063.656l215.452-230.087-249.81-83.095,34.358,313.182ZM1180.317,1814.163l78.237,25.996c6.364,2.692,8.97,10.003,5.208,15.99l-68.769,73.321c-3.069,2.619-7.606,3.231-11.264,1.556-3.052-1.397-5.476-4.777-6.012-8.072-5.206-31.987-6.064-65.881-10.97-98.048-.303-7.712,6.308-12.369,13.57-10.743ZM1111.114,1791.94c3.889-.073,20.546,5.529,23.834,7.797.66.455,2.187,1.828,2.59,2.46,1.853,2.906,2.542,12.529,3.039,16.457,6.206,49.04,10.379,98.381,16.509,147.437-.106,2.65-.828,4.651-2.391,6.775-2.831,3.848-12.827,14.441-16.509,17.519-5.464,4.569-13.36,2.341-16.521-3.776l-20.801-184.02c-.116-5.728,4.554-10.543,10.249-10.65Z" fill="#231f20"/><path d="M1363.782,1855.322l-215.452,230.087,249.81,83.095-34.358-313.183ZM1287.432,2104.815l-78.237-25.996c-6.364-2.693-8.97-10.003-5.208-15.99l68.769-73.321c3.069-2.619,7.606-3.231,11.264-1.556,3.052,1.398,5.476,4.778,6.012,8.072,5.206,31.988,6.064,65.881,10.97,98.048.303,7.712-6.308,12.369-13.57,10.743ZM1356.635,2127.038c-3.889.073-20.546-5.529-23.833-7.797-.66-.455-2.188-1.829-2.591-2.46-1.853-2.906-2.542-12.529-3.039-16.457-6.206-49.04-10.379-98.381-16.509-147.437.106-2.65.828-4.651,2.391-6.775,2.831-3.848,12.827-14.44,16.509-17.519,5.464-4.569,13.36-2.342,16.521,3.776l20.801,184.02c.116,5.728-4.554,10.543-10.249,10.65Z" fill="#231f20"/><path d="M-236.227,1670.9l34.358,313.182L13.583,1753.995l-249.81-83.095ZM-151.141,1893.292c-2.831,3.848-12.827,14.441-16.509,17.519-5.464,4.569-13.36,2.341-16.521-3.776l-20.801-184.02c-.116-5.728,4.554-10.543,10.249-10.65,3.889-.073,20.546,5.529,23.834,7.797.66.455,2.187,1.829,2.59,2.461,1.853,2.906,2.542,12.528,3.039,16.456,6.206,49.04,10.379,98.382,16.509,147.437-.106,2.65-.828,4.651-2.391,6.775ZM-110.843,1849.895c-3.069,2.619-7.606,3.231-11.264,1.556-3.052-1.398-5.476-4.777-6.012-8.072-5.206-31.987-6.064-65.881-10.97-98.048-.303-7.712,6.308-12.369,13.57-10.743l78.237,25.996c6.364,2.692,8.97,10.003,5.208,15.99l-68.769,73.321Z" fill="#231f20"/><path d="M57.945,1775.748l-215.452,230.087,249.81,83.095-34.358-313.182ZM-18.404,2025.241l-78.237-25.996c-6.364-2.693-8.97-10.003-5.208-15.99l68.768-73.321c3.069-2.619,7.606-3.231,11.264-1.556,3.052,1.397,5.476,4.777,6.012,8.072,5.206,31.988,6.064,65.881,10.97,98.048.303,7.712-6.308,12.369-13.57,10.743ZM50.799,2047.464c-3.889.073-20.546-5.529-23.834-7.797-.66-.455-2.187-1.829-2.59-2.461-1.853-2.906-2.542-12.528-3.039-16.457-6.206-49.04-10.379-98.381-16.509-147.437.106-2.65.828-4.651,2.391-6.775,2.831-3.848,12.827-14.44,16.509-17.519,5.464-4.569,13.36-2.341,16.521,3.776l20.801,184.02c.116,5.728-4.554,10.543-10.249,10.65Z" fill="#231f20"/><path d="M106.033,1784.747l34.358,313.182,215.452-230.087-249.81-83.095ZM191.12,2007.14c-2.831,3.848-12.827,14.44-16.509,17.519-5.464,4.569-13.36,2.341-16.521-3.776l-20.801-184.02c-.116-5.728,4.554-10.543,10.249-10.65,3.889-.073,20.546,5.529,23.834,7.797.66.455,2.187,1.828,2.59,2.46,1.853,2.906,2.542,12.528,3.039,16.456,6.206,49.04,10.379,98.382,16.509,147.437-.106,2.65-.828,4.651-2.391,6.775ZM231.418,1963.743c-3.069,2.619-7.606,3.231-11.264,1.556-3.052-1.398-5.476-4.777-6.012-8.072-5.206-31.988-6.064-65.881-10.97-98.048-.303-7.712,6.308-12.369,13.57-10.742l78.237,25.996c6.364,2.693,8.97,10.003,5.208,15.99l-68.769,73.321Z" fill="#231f20"/><path d="M400.206,1889.595l-215.452,230.087,249.81,83.095-34.358-313.183ZM323.857,2139.088l-78.237-25.996c-6.364-2.693-8.97-10.003-5.208-15.99l68.768-73.321c3.069-2.619,7.606-3.231,11.264-1.556,3.052,1.398,5.476,4.778,6.012,8.072,5.206,31.987,6.064,65.881,10.97,98.048.303,7.712-6.308,12.369-13.57,10.743ZM393.059,2161.311c-3.889.073-20.546-5.529-23.834-7.797-.66-.455-2.187-1.829-2.59-2.46-1.853-2.906-2.542-12.529-3.039-16.457-6.206-49.04-10.379-98.381-16.509-147.437.106-2.65.828-4.651,2.391-6.775,2.831-3.848,12.827-14.44,16.509-17.519,5.464-4.569,13.36-2.341,16.521,3.776l20.801,184.02c.116,5.728-4.554,10.543-10.249,10.65Z" fill="#231f20"/><path d="M448.294,1898.595l34.358,313.183,215.452-230.087-249.81-83.095ZM533.381,2120.987c-2.831,3.848-12.827,14.441-16.509,17.519-5.464,4.569-13.36,2.341-16.521-3.776l-20.801-184.019c-.116-5.728,4.554-10.543,10.249-10.65,3.889-.073,20.546,5.529,23.834,7.797.66.455,2.187,1.829,2.59,2.46,1.853,2.906,2.542,12.529,3.039,16.457,6.206,49.04,10.379,98.381,16.509,147.437-.106,2.65-.828,4.651-2.391,6.775ZM573.678,2077.59c-3.069,2.619-7.606,3.231-11.264,1.556-3.052-1.398-5.476-4.778-6.012-8.072-5.206-31.987-6.064-65.881-10.97-98.048-.303-7.712,6.308-12.369,13.57-10.743l78.237,25.996c6.364,2.693,8.97,10.003,5.208,15.99l-68.769,73.321Z" fill="#231f20"/><path d="M742.467,2003.443l-215.452,230.087,249.81,83.095-34.358-313.182ZM666.117,2252.936l-78.237-25.996c-6.364-2.693-8.97-10.003-5.208-15.99l68.768-73.321c3.069-2.619,7.606-3.231,11.264-1.556,3.052,1.398,5.476,4.777,6.012,8.072,5.206,31.988,6.064,65.881,10.97,98.048.303,7.712-6.308,12.369-13.57,10.742ZM735.32,2275.159c-3.889.073-20.546-5.529-23.834-7.797-.66-.455-2.187-1.828-2.59-2.46-1.853-2.906-2.542-12.528-3.039-16.456-6.206-49.04-10.379-98.382-16.509-147.437.106-2.65.828-4.651,2.391-6.775,2.831-3.848,12.827-14.44,16.509-17.519,5.464-4.569,13.36-2.342,16.521,3.776l20.801,184.02c.116,5.728-4.554,10.543-10.249,10.65Z" fill="#231f20"/><path d="M790.555,2012.442l34.358,313.182,215.452-230.087-249.81-83.095ZM875.641,2234.835c-2.831,3.848-12.827,14.44-16.509,17.519-5.464,4.569-13.36,2.342-16.521-3.776l-20.801-184.02c-.116-5.728,4.554-10.543,10.249-10.65,3.889-.073,20.546,5.529,23.834,7.797.66.455,2.187,1.829,2.59,2.461,1.853,2.906,2.542,12.529,3.039,16.457,6.206,49.04,10.379,98.381,16.509,147.437-.106,2.65-.828,4.651-2.391,6.775ZM915.939,2191.438c-3.069,2.619-7.606,3.231-11.264,1.556-3.052-1.397-5.476-4.777-6.012-8.072-5.206-31.988-6.064-65.881-10.97-98.048-.303-7.712,6.308-12.369,13.57-10.743l78.237,25.996c6.364,2.693,8.97,10.003,5.208,15.99l-68.769,73.321Z" fill="#231f20"/><path d="M1084.728,2117.291l-215.452,230.087,249.81,83.095-34.358-313.182ZM1008.378,2366.784l-78.237-25.996c-6.364-2.692-8.97-10.003-5.208-15.99l68.768-73.321c3.069-2.619,7.606-3.231,11.264-1.556,3.052,1.397,5.476,4.777,6.012,8.072,5.206,31.987,6.064,65.881,10.97,98.048.303,7.712-6.308,12.369-13.57,10.743ZM1077.581,2389.007c-3.889.073-20.546-5.529-23.834-7.797-.66-.455-2.187-1.829-2.59-2.461-1.853-2.906-2.542-12.528-3.039-16.456-6.206-49.04-10.379-98.382-16.509-147.437.106-2.65.828-4.651,2.391-6.775,2.831-3.848,12.827-14.441,16.509-17.519,5.464-4.569,13.36-2.341,16.521,3.776l20.801,184.02c.116,5.728-4.554,10.543-10.249,10.65Z" fill="#231f20"/><path d="M1132.816,2126.29l34.358,313.182,215.452-230.087-249.81-83.095ZM1217.902,2348.683c-2.831,3.849-12.827,14.441-16.509,17.519-5.464,4.569-13.36,2.341-16.521-3.776l-20.801-184.02c-.116-5.728,4.554-10.543,10.249-10.65,3.889-.073,20.546,5.529,23.834,7.797.66.455,2.187,1.829,2.59,2.461,1.853,2.906,2.542,12.528,3.039,16.456,6.206,49.04,10.379,98.382,16.509,147.437-.106,2.65-.828,4.651-2.391,6.775ZM1258.2,2305.285c-3.069,2.619-7.606,3.231-11.264,1.556-3.052-1.398-5.476-4.777-6.012-8.072-5.206-31.987-6.064-65.881-10.97-98.048-.303-7.712,6.308-12.369,13.57-10.742l78.237,25.996c6.364,2.692,8.97,10.003,5.208,15.99l-68.769,73.321Z" fill="#231f20"/><path d="M1426.988,2231.138l-215.452,230.087,249.81,83.095-34.358-313.182ZM1350.639,2480.631l-78.237-25.996c-6.364-2.693-8.97-10.003-5.208-15.99l68.769-73.321c3.069-2.619,7.606-3.231,11.264-1.556,3.052,1.398,5.476,4.777,6.012,8.072,5.206,31.987,6.064,65.881,10.97,98.048.303,7.712-6.308,12.369-13.57,10.743ZM1419.842,2502.854c-3.889.073-20.546-5.529-23.833-7.797-.66-.455-2.187-1.829-2.591-2.461-1.853-2.906-2.542-12.528-3.039-16.456-6.206-49.041-10.379-98.382-16.509-147.437.106-2.65.828-4.651,2.391-6.775,2.831-3.849,12.827-14.441,16.509-17.519,5.464-4.569,13.36-2.341,16.521,3.776l20.801,184.019c.117,5.728-4.554,10.543-10.249,10.65Z" fill="#231f20"/><path d="M-169.133,2053.126l34.358,313.182,215.452-230.087-249.81-83.095ZM-84.046,2275.519c-2.831,3.849-12.827,14.441-16.509,17.519-5.464,4.569-13.36,2.341-16.521-3.776l-20.801-184.02c-.116-5.728,4.554-10.543,10.249-10.65,3.889-.073,20.546,5.529,23.834,7.797.66.455,2.187,1.829,2.59,2.461,1.853,2.906,2.542,12.528,3.039,16.456,6.206,49.04,10.379,98.382,16.509,147.437-.106,2.649-.828,4.651-2.391,6.775ZM-43.748,2232.122c-3.069,2.619-7.606,3.231-11.264,1.556-3.052-1.398-5.476-4.777-6.012-8.072-5.206-31.987-6.064-65.881-10.97-98.048-.303-7.712,6.308-12.369,13.57-10.742l78.237,25.996c6.364,2.693,8.97,10.003,5.208,15.99l-68.768,73.321Z" fill="#231f20"/><path d="M-90.412,2388.061l249.81,83.095-34.358-313.182-215.452,230.087ZM48.69,2407.467l-78.237-25.996c-6.364-2.693-8.97-10.003-5.208-15.99l68.769-73.321c3.069-2.619,7.606-3.231,11.264-1.556,3.052,1.398,5.476,4.777,6.012,8.072,5.206,31.987,6.064,65.881,10.97,98.048.303,7.712-6.308,12.369-13.57,10.742ZM117.893,2429.69c-3.889.073-20.546-5.529-23.834-7.797-.66-.455-2.187-1.829-2.59-2.461-1.853-2.906-2.542-12.528-3.039-16.456-6.206-49.04-10.379-98.382-16.509-147.437.106-2.649.828-4.651,2.391-6.775,2.831-3.849,12.827-14.441,16.509-17.519,5.464-4.569,13.36-2.341,16.521,3.776l20.801,184.019c.116,5.728-4.554,10.543-10.249,10.65Z" fill="#231f20"/><path d="M173.128,2166.974l34.358,313.182,215.452-230.087-249.81-83.095ZM258.214,2389.366c-2.831,3.848-12.827,14.44-16.509,17.519-5.464,4.569-13.36,2.341-16.521-3.776l-20.801-184.02c-.116-5.728,4.554-10.543,10.249-10.65,3.889-.073,20.546,5.529,23.834,7.797.66.455,2.187,1.828,2.59,2.46,1.853,2.906,2.542,12.528,3.039,16.457,6.206,49.04,10.379,98.381,16.509,147.437-.106,2.65-.828,4.651-2.391,6.775ZM298.512,2345.969c-3.069,2.619-7.606,3.231-11.264,1.556-3.052-1.397-5.476-4.777-6.012-8.072-5.206-31.987-6.064-65.881-10.97-98.048-.303-7.712,6.308-12.369,13.57-10.743l78.237,25.996c6.364,2.692,8.97,10.003,5.208,15.99l-68.768,73.321Z" fill="#231f20"/><path d="M251.849,2501.909l249.81,83.095-34.358-313.183-215.452,230.087ZM390.951,2521.315l-78.237-25.996c-6.364-2.693-8.97-10.003-5.208-15.99l68.769-73.321c3.069-2.619,7.606-3.231,11.264-1.556,3.052,1.398,5.476,4.778,6.012,8.072,5.206,31.988,6.064,65.881,10.97,98.048.303,7.712-6.308,12.369-13.57,10.743ZM460.154,2543.538c-3.889.073-20.546-5.529-23.834-7.797-.66-.455-2.187-1.829-2.59-2.46-1.853-2.906-2.542-12.529-3.039-16.457-6.206-49.04-10.379-98.381-16.509-147.437.106-2.65.828-4.651,2.391-6.775,2.831-3.848,12.827-14.44,16.509-17.519,5.464-4.569,13.36-2.342,16.521,3.776l20.801,184.02c.116,5.728-4.554,10.543-10.249,10.65Z" fill="#231f20"/><path d="M515.389,2280.822l34.358,313.182,215.452-230.087-249.81-83.095ZM600.475,2503.214c-2.831,3.848-12.827,14.44-16.509,17.519-5.464,4.569-13.36,2.342-16.521-3.776l-20.801-184.02c-.116-5.728,4.554-10.543,10.249-10.65,3.889-.073,20.546,5.529,23.834,7.797.66.455,2.187,1.829,2.59,2.461,1.853,2.906,2.542,12.528,3.039,16.456,6.206,49.04,10.379,98.382,16.509,147.437-.106,2.65-.828,4.651-2.391,6.776ZM640.773,2459.817c-3.069,2.619-7.606,3.231-11.264,1.556-3.052-1.398-5.476-4.777-6.012-8.072-5.206-31.988-6.064-65.881-10.97-98.048-.303-7.712,6.308-12.369,13.57-10.742l78.237,25.996c6.364,2.693,8.97,10.003,5.208,15.99l-68.768,73.321Z" fill="#231f20"/><path d="M594.11,2615.756l249.81,83.095-34.358-313.183-215.452,230.087ZM733.212,2635.163l-78.237-25.996c-6.364-2.693-8.97-10.003-5.208-15.99l68.768-73.321c3.069-2.619,7.606-3.231,11.264-1.556,3.052,1.398,5.476,4.777,6.012,8.072,5.206,31.988,6.064,65.881,10.97,98.048.303,7.712-6.308,12.369-13.57,10.743ZM802.415,2657.385c-3.889.073-20.546-5.529-23.834-7.797-.66-.455-2.187-1.829-2.59-2.461-1.853-2.906-2.542-12.528-3.039-16.456-6.206-49.04-10.379-98.382-16.509-147.437.106-2.65.828-4.651,2.391-6.776,2.831-3.848,12.827-14.44,16.509-17.519,5.464-4.569,13.36-2.341,16.521,3.776l20.801,184.02c.116,5.728-4.554,10.543-10.249,10.65Z" fill="#231f20"/><path d="M857.65,2394.669l34.358,313.183,215.452-230.087-249.81-83.095ZM942.736,2617.062c-2.831,3.848-12.827,14.44-16.509,17.519-5.464,4.569-13.359,2.341-16.521-3.776l-20.801-184.02c-.116-5.728,4.554-10.543,10.249-10.65,3.889-.073,20.546,5.529,23.834,7.797.66.455,2.187,1.829,2.59,2.46,1.853,2.906,2.542,12.529,3.039,16.457,6.206,49.04,10.379,98.381,16.509,147.437-.106,2.65-.828,4.651-2.391,6.775ZM983.034,2573.665c-3.069,2.619-7.606,3.231-11.264,1.556-3.052-1.398-5.476-4.778-6.012-8.072-5.206-31.987-6.064-65.881-10.97-98.048-.303-7.712,6.308-12.369,13.57-10.743l78.237,25.996c6.364,2.693,8.97,10.003,5.208,15.99l-68.768,73.321Z" fill="#231f20"/><path d="M936.37,2729.604l249.81,83.095-34.358-313.182-215.452,230.087ZM1075.473,2749.01l-78.237-25.996c-6.364-2.693-8.97-10.003-5.208-15.99l68.768-73.321c3.069-2.619,7.606-3.231,11.264-1.556,3.052,1.398,5.476,4.777,6.012,8.072,5.206,31.987,6.064,65.881,10.97,98.048.303,7.712-6.308,12.369-13.57,10.743ZM1144.676,2771.233c-3.889.073-20.546-5.529-23.834-7.797-.66-.455-2.187-1.828-2.59-2.46-1.853-2.906-2.542-12.528-3.039-16.457-6.206-49.04-10.379-98.381-16.509-147.437.106-2.65.828-4.651,2.391-6.775,2.831-3.848,12.827-14.44,16.509-17.519,5.464-4.569,13.359-2.341,16.521,3.776l20.801,184.02c.116,5.728-4.554,10.543-10.249,10.65Z" fill="#231f20"/><path d="M1199.91,2508.517l34.358,313.182,215.452-230.087-249.81-83.095ZM1284.997,2730.909c-2.831,3.849-12.827,14.441-16.509,17.519-5.464,4.569-13.359,2.341-16.521-3.776l-20.801-184.019c-.116-5.728,4.554-10.543,10.249-10.65,3.889-.073,20.546,5.529,23.834,7.797.66.455,2.187,1.829,2.59,2.461,1.853,2.906,2.542,12.528,3.039,16.456,6.206,49.041,10.379,98.382,16.509,147.437-.106,2.65-.828,4.651-2.391,6.775ZM1325.294,2687.512c-3.069,2.619-7.606,3.231-11.264,1.556-3.052-1.398-5.476-4.777-6.012-8.072-5.206-31.987-6.064-65.881-10.97-98.048-.303-7.712,6.308-12.369,13.57-10.743l78.237,25.996c6.364,2.693,8.97,10.003,5.208,15.99l-68.769,73.321Z" fill="#231f20"/><path d="M1494.083,2613.364l-215.452,230.087,249.81,83.095-34.358-313.182ZM1417.733,2862.857l-78.237-25.996c-6.364-2.692-8.97-10.003-5.208-15.99l68.768-73.321c3.069-2.619,7.606-3.231,11.264-1.556,3.052,1.398,5.476,4.777,6.012,8.072,5.206,31.987,6.064,65.881,10.97,98.048.302,7.712-6.308,12.369-13.57,10.742ZM1486.936,2885.081c-3.889.073-20.546-5.529-23.834-7.797-.66-.455-2.187-1.829-2.591-2.461-1.853-2.906-2.542-12.528-3.039-16.456-6.206-49.04-10.379-98.382-16.509-147.437.106-2.65.828-4.651,2.391-6.775,2.831-3.849,12.827-14.441,16.509-17.519,5.464-4.569,13.359-2.341,16.52,3.776l20.801,184.02c.116,5.728-4.554,10.543-10.249,10.65Z" fill="#231f20"/><path d="M143.884,2512.038l-249.81-83.095,34.358,313.182,215.452-230.087ZM4.782,2492.631l78.237,25.996c6.364,2.693,8.97,10.003,5.208,15.99l-68.768,73.321c-3.069,2.619-7.606,3.231-11.264,1.556-3.052-1.397-5.476-4.777-6.012-8.072-5.206-31.988-6.064-65.881-10.97-98.048-.303-7.712,6.308-12.369,13.57-10.743ZM-64.421,2470.408c3.889-.073,20.546,5.529,23.834,7.797.66.455,2.187,1.829,2.59,2.461,1.853,2.906,2.542,12.529,3.039,16.457,6.206,49.04,10.379,98.381,16.509,147.437-.106,2.65-.828,4.651-2.391,6.775-2.831,3.848-12.827,14.44-16.509,17.519-5.464,4.569-13.36,2.342-16.521-3.776l-20.801-184.02c-.116-5.728,4.554-10.543,10.249-10.65Z" fill="#231f20"/><path d="M188.247,2533.79l-215.452,230.087,249.81,83.095-34.358-313.183ZM111.897,2783.283l-78.237-25.996c-6.364-2.692-8.97-10.003-5.208-15.99l68.769-73.321c3.069-2.619,7.606-3.231,11.264-1.556,3.052,1.398,5.476,4.777,6.012,8.072,5.206,31.987,6.064,65.881,10.97,98.048.303,7.712-6.308,12.369-13.57,10.743ZM181.1,2805.506c-3.889.073-20.546-5.529-23.834-7.797-.66-.455-2.187-1.829-2.59-2.461-1.853-2.906-2.542-12.528-3.039-16.456-6.206-49.04-10.379-98.382-16.509-147.437.106-2.65.828-4.651,2.391-6.775,2.831-3.848,12.827-14.441,16.509-17.519,5.464-4.569,13.36-2.341,16.521,3.776l20.801,184.02c.116,5.728-4.554,10.543-10.249,10.65Z" fill="#231f20"/><path d="M486.145,2625.885l-249.81-83.095,34.358,313.182,215.452-230.087ZM347.042,2606.479l78.237,25.996c6.364,2.692,8.97,10.003,5.208,15.99l-68.768,73.321c-3.069,2.619-7.606,3.231-11.264,1.556-3.052-1.398-5.476-4.777-6.012-8.072-5.206-31.987-6.064-65.881-10.97-98.048-.303-7.712,6.308-12.369,13.57-10.742ZM277.84,2584.256c3.889-.073,20.546,5.529,23.834,7.797.66.455,2.187,1.829,2.59,2.461,1.853,2.906,2.542,12.528,3.039,16.456,6.206,49.04,10.379,98.382,16.509,147.437-.106,2.65-.828,4.651-2.391,6.775-2.831,3.848-12.827,14.441-16.509,17.519-5.464,4.569-13.36,2.341-16.521-3.776l-20.801-184.02c-.116-5.728,4.554-10.543,10.249-10.65Z" fill="#231f20"/><path d="M530.507,2647.638l-215.452,230.087,249.81,83.095-34.358-313.182ZM454.158,2897.131l-78.237-25.996c-6.364-2.693-8.97-10.003-5.208-15.99l68.769-73.321c3.069-2.619,7.606-3.231,11.264-1.556,3.052,1.398,5.476,4.777,6.012,8.072,5.206,31.988,6.064,65.881,10.97,98.048.303,7.712-6.308,12.369-13.57,10.743ZM523.361,2919.354c-3.889.073-20.546-5.529-23.834-7.797-.66-.455-2.187-1.829-2.59-2.461-1.853-2.906-2.542-12.528-3.039-16.457-6.206-49.04-10.379-98.381-16.509-147.437.106-2.65.828-4.651,2.391-6.775,2.831-3.848,12.827-14.44,16.509-17.519,5.464-4.569,13.36-2.341,16.521,3.776l20.801,184.019c.116,5.728-4.554,10.543-10.249,10.65Z" fill="#231f20"/><path d="M828.405,2739.732l-249.81-83.095,34.358,313.182,215.452-230.087ZM689.303,2720.326l78.237,25.996c6.364,2.693,8.97,10.003,5.208,15.99l-68.768,73.321c-3.069,2.619-7.606,3.231-11.264,1.556-3.052-1.398-5.476-4.777-6.012-8.072-5.206-31.987-6.064-65.881-10.97-98.048-.303-7.712,6.308-12.369,13.57-10.743ZM620.1,2698.103c3.889-.073,20.546,5.529,23.834,7.797.66.455,2.187,1.828,2.59,2.46,1.853,2.906,2.542,12.528,3.039,16.456,6.206,49.041,10.379,98.382,16.509,147.437-.106,2.65-.828,4.651-2.391,6.775-2.831,3.848-12.827,14.44-16.509,17.519-5.464,4.569-13.36,2.341-16.521-3.776l-20.801-184.02c-.116-5.728,4.554-10.543,10.249-10.65Z" fill="#231f20"/><path d="M872.768,2761.485l-215.452,230.087,249.81,83.095-34.358-313.183ZM796.418,3010.978l-78.237-25.996c-6.364-2.693-8.97-10.003-5.208-15.99l68.769-73.321c3.069-2.619,7.606-3.231,11.264-1.556,3.052,1.398,5.476,4.778,6.012,8.072,5.206,31.987,6.064,65.881,10.97,98.048.303,7.712-6.308,12.369-13.57,10.743ZM865.621,3033.201c-3.889.073-20.546-5.529-23.834-7.797-.66-.455-2.187-1.829-2.59-2.46-1.853-2.906-2.542-12.529-3.039-16.457-6.206-49.04-10.379-98.381-16.509-147.437.106-2.65.828-4.651,2.391-6.775,2.831-3.848,12.827-14.44,16.509-17.519,5.464-4.569,13.36-2.341,16.521,3.776l20.801,184.02c.116,5.728-4.554,10.543-10.249,10.65Z" fill="#231f20"/><path d="M1170.666,2853.58l-249.81-83.095,34.358,313.183,215.452-230.087ZM1031.564,2834.174l78.237,25.996c6.364,2.693,8.97,10.003,5.208,15.99l-68.768,73.321c-3.069,2.619-7.606,3.231-11.264,1.556-3.052-1.398-5.476-4.777-6.012-8.072-5.206-31.988-6.064-65.881-10.97-98.048-.303-7.712,6.308-12.369,13.57-10.743ZM962.361,2811.951c3.889-.073,20.546,5.529,23.834,7.797.66.455,2.187,1.829,2.59,2.461,1.853,2.906,2.542,12.528,3.039,16.456,6.206,49.04,10.379,98.382,16.509,147.437-.106,2.65-.828,4.651-2.391,6.776-2.831,3.848-12.827,14.44-16.509,17.519-5.464,4.569-13.36,2.341-16.521-3.776l-20.801-184.019c-.116-5.728,4.554-10.543,10.249-10.65Z" fill="#231f20"/></g></svg>