<?xml version="1.0" encoding="UTF-8"?><svg id="Layer_1" xmlns="http://www.w3.org/2000/svg" xmlns:xlink="http://www.w3.org/1999/xlink" viewBox="0 0 2048 2732"><defs><clipPath id="clippath"><rect width="2048" height="2732" fill="none"/></clipPath></defs><g clip-path="url(#clippath)"><path d="M1345.367,76.743l-34.358-313.182L1095.557-6.353l249.81,83.096ZM1260.281-145.65c2.831-3.848,12.827-14.44,16.509-17.519,5.464-4.569,13.36-2.341,16.521,3.776l20.801,184.02c.116,5.728-4.554,10.543-10.249,10.65-3.889.073-20.546-5.529-23.834-7.797-.66-.455-2.188-1.829-2.59-2.46-1.853-2.906-2.542-12.528-3.039-16.457-6.206-49.04-10.379-98.381-16.509-147.437.106-2.65.828-4.651,2.391-6.775ZM1219.983-102.253c3.069-2.619,7.606-3.231,11.264-1.556,3.052,1.397,5.476,4.777,6.012,8.072,5.206,31.987,6.064,65.881,10.97,98.048.303,7.712-6.307,12.369-13.57,10.743l-78.237-25.996c-6.364-2.693-8.97-10.003-5.208-15.99l68.769-73.32Z" fill="#231f20"/><path d="M1608.907-144.345l-249.81-83.095,34.358,313.182,215.452-230.087ZM1469.805-163.751l78.237,25.996c6.364,2.693,8.97,10.003,5.208,15.99l-68.768,73.32c-3.069,2.619-7.606,3.231-11.264,1.556-3.052-1.398-5.476-4.777-6.012-8.072-5.206-31.988-6.064-65.881-10.97-98.048-.303-7.712,6.308-12.369,13.57-10.742ZM1400.602-185.974c3.889-.073,20.545,5.529,23.833,7.797.66.455,2.188,1.829,2.591,2.461,1.853,2.906,2.542,12.528,3.039,16.456,6.206,49.04,10.379,98.382,16.509,147.437-.106,2.65-.828,4.651-2.391,6.775-2.831,3.848-12.827,14.44-16.509,17.519-5.464,4.569-13.359,2.341-16.521-3.776l-20.801-184.02c-.116-5.728,4.554-10.543,10.249-10.65Z" fill="#231f20"/><path d="M1687.628,190.59l-34.358-313.182-215.452,230.087,249.81,83.095ZM1602.541-31.803c2.831-3.848,12.828-14.44,16.509-17.519,5.464-4.569,13.36-2.341,16.521,3.776l20.801,184.02c.117,5.728-4.554,10.543-10.249,10.65-3.889.073-20.545-5.529-23.833-7.797-.66-.455-2.187-1.829-2.591-2.461-1.853-2.906-2.542-12.528-3.039-16.456-6.206-49.04-10.379-98.382-16.509-147.437.106-2.65.828-4.651,2.391-6.775ZM1562.244,11.594c3.069-2.619,7.606-3.231,11.264-1.556,3.052,1.398,5.476,4.777,6.012,8.072,5.206,31.988,6.064,65.881,10.97,98.048.303,7.712-6.307,12.369-13.57,10.742l-78.237-25.996c-6.364-2.693-8.97-10.003-5.208-15.99l68.769-73.321Z" fill="#231f20"/><path d="M1951.168-30.497l-249.81-83.096,34.358,313.182,215.452-230.087ZM1812.065-49.903l78.237,25.996c6.364,2.693,8.97,10.003,5.208,15.99l-68.768,73.321c-3.069,2.619-7.606,3.231-11.264,1.556-3.052-1.398-5.476-4.778-6.012-8.072-5.206-31.988-6.064-65.881-10.97-98.048-.302-7.712,6.308-12.369,13.57-10.743ZM1742.863-72.126c3.889-.073,20.546,5.529,23.833,7.797.66.455,2.188,1.828,2.591,2.46,1.853,2.906,2.542,12.528,3.039,16.457,6.206,49.04,10.379,98.381,16.509,147.437-.106,2.65-.828,4.651-2.391,6.775-2.831,3.848-12.828,14.44-16.509,17.519-5.464,4.569-13.359,2.341-16.521-3.776l-20.801-184.02c-.116-5.728,4.554-10.543,10.249-10.65Z" fill="#231f20"/><path d="M2029.888,304.438l-34.358-313.182-215.452,230.087,249.81,83.096ZM1944.802,82.045c2.831-3.848,12.828-14.44,16.509-17.519,5.464-4.569,13.36-2.341,16.521,3.776l20.801,184.02c.117,5.728-4.554,10.543-10.249,10.65-3.889.073-20.546-5.529-23.833-7.797-.66-.455-2.187-1.828-2.591-2.46-1.853-2.906-2.542-12.529-3.039-16.457-6.206-49.04-10.379-98.381-16.509-147.437.106-2.65.828-4.651,2.391-6.775ZM1904.504,125.442c3.069-2.619,7.606-3.231,11.264-1.556,3.052,1.397,5.476,4.778,6.012,8.072,5.206,31.988,6.064,65.881,10.97,98.048.303,7.712-6.308,12.369-13.57,10.743l-78.237-25.996c-6.364-2.693-8.97-10.003-5.208-15.99l68.769-73.321Z" fill="#231f20"/><path d="M2293.428,83.35L2043.618.255l34.358,313.182,215.452-230.087ZM2154.326,63.944l78.237,25.996c6.364,2.693,8.97,10.003,5.208,15.99l-68.769,73.321c-3.069,2.619-7.606,3.231-11.264,1.556-3.052-1.398-5.476-4.777-6.012-8.072-5.206-31.988-6.064-65.881-10.97-98.048-.302-7.712,6.307-12.369,13.57-10.742ZM2085.123,41.721c3.889-.073,20.546,5.529,23.833,7.797.66.455,2.188,1.829,2.591,2.461,1.853,2.906,2.542,12.528,3.039,16.456,6.206,49.04,10.379,98.382,16.509,147.437-.106,2.65-.828,4.651-2.39,6.775-2.831,3.848-12.827,14.44-16.509,17.519-5.464,4.569-13.359,2.341-16.521-3.776l-20.801-184.02c-.116-5.728,4.554-10.543,10.249-10.65Z" fill="#231f20"/><path d="M89.137,5.705l215.452-230.087-249.81-83.095L89.137,5.705ZM165.487-243.788l78.237,25.996c6.364,2.693,8.97,10.003,5.208,15.99l-68.768,73.321c-3.069,2.619-7.606,3.231-11.264,1.556-3.052-1.397-5.476-4.777-6.012-8.072-5.206-31.988-6.064-65.881-10.97-98.048-.303-7.712,6.308-12.369,13.57-10.742ZM96.284-266.011c3.889-.073,20.546,5.529,23.834,7.797.66.455,2.187,1.828,2.59,2.461,1.853,2.906,2.542,12.528,3.039,16.457,6.206,49.04,10.379,98.381,16.509,147.437-.106,2.65-.828,4.651-2.391,6.775-2.831,3.848-12.827,14.44-16.509,17.519-5.464,4.569-13.359,2.341-16.521-3.776l-20.801-184.02c-.116-5.728,4.554-10.543,10.249-10.65Z" fill="#231f20"/><path d="M383.31,110.553l-34.358-313.182L133.5,27.458l249.81,83.095ZM298.224-111.839c2.831-3.848,12.827-14.44,16.509-17.519,5.464-4.569,13.359-2.341,16.521,3.776l20.801,184.02c.116,5.728-4.554,10.543-10.249,10.65-3.889.073-20.546-5.529-23.834-7.797-.66-.455-2.187-1.829-2.59-2.461-1.853-2.906-2.542-12.528-3.039-16.457-6.206-49.04-10.379-98.381-16.509-147.437.106-2.65.828-4.651,2.391-6.775ZM257.926-68.442c3.069-2.619,7.606-3.231,11.264-1.556,3.052,1.398,5.476,4.778,6.012,8.072,5.206,31.987,6.064,65.881,10.97,98.048.303,7.712-6.308,12.369-13.57,10.743l-78.237-25.996c-6.364-2.693-8.97-10.003-5.208-15.99l68.768-73.32Z" fill="#231f20"/><path d="M431.398,119.553l215.452-230.087-249.81-83.095,34.358,313.182ZM507.748-129.94l78.237,25.996c6.364,2.693,8.97,10.003,5.208,15.99l-68.768,73.32c-3.069,2.619-7.606,3.231-11.264,1.556-3.052-1.398-5.476-4.777-6.012-8.072-5.206-31.987-6.064-65.881-10.97-98.048-.303-7.712,6.308-12.369,13.57-10.742ZM438.545-152.163c3.889-.073,20.545,5.529,23.834,7.797.66.455,2.187,1.829,2.59,2.461,1.853,2.906,2.542,12.528,3.039,16.457,6.206,49.04,10.379,98.382,16.509,147.437-.106,2.65-.828,4.651-2.391,6.775-2.831,3.848-12.827,14.441-16.509,17.519-5.464,4.569-13.359,2.341-16.521-3.776l-20.801-184.02c-.116-5.728,4.554-10.543,10.249-10.65Z" fill="#231f20"/><path d="M725.571,224.401l-34.358-313.182-215.452,230.087,249.81,83.095ZM640.484,2.008c2.831-3.848,12.827-14.44,16.509-17.519,5.464-4.569,13.359-2.341,16.521,3.776l20.801,184.02c.116,5.728-4.554,10.543-10.249,10.65-3.889.073-20.546-5.529-23.834-7.797-.66-.455-2.187-1.829-2.59-2.461-1.853-2.906-2.542-12.528-3.039-16.456-6.206-49.04-10.379-98.382-16.509-147.437.106-2.65.828-4.651,2.391-6.776ZM600.187,45.405c3.069-2.619,7.606-3.231,11.264-1.556,3.052,1.398,5.476,4.777,6.012,8.072,5.206,31.988,6.064,65.881,10.97,98.048.303,7.712-6.308,12.369-13.57,10.742l-78.237-25.996c-6.364-2.693-8.97-10.003-5.208-15.99l68.769-73.321Z" fill="#231f20"/><path d="M773.659,233.401L989.111,3.314l-249.81-83.095,34.358,313.182ZM850.008-16.092l78.237,25.996c6.364,2.693,8.97,10.003,5.208,15.99l-68.768,73.321c-3.069,2.619-7.606,3.231-11.264,1.556-3.052-1.398-5.476-4.778-6.012-8.072-5.206-31.988-6.064-65.881-10.97-98.048-.303-7.712,6.308-12.369,13.57-10.743ZM780.806-38.315c3.889-.073,20.546,5.529,23.834,7.797.66.455,2.187,1.829,2.59,2.461,1.853,2.906,2.542,12.528,3.039,16.457,6.206,49.04,10.379,98.381,16.509,147.437-.106,2.65-.828,4.651-2.391,6.775-2.831,3.848-12.827,14.44-16.509,17.519-5.464,4.569-13.36,2.341-16.521-3.776l-20.801-184.02c-.116-5.728,4.554-10.543,10.249-10.65Z" fill="#231f20"/><path d="M1067.832,338.249l-34.358-313.182-215.452,230.087,249.81,83.096ZM982.745,115.856c2.831-3.848,12.827-14.44,16.509-17.519,5.464-4.569,13.36-2.341,16.521,3.776l20.801,184.02c.116,5.728-4.554,10.543-10.249,10.65-3.889.073-20.546-5.529-23.834-7.797-.66-.455-2.187-1.828-2.59-2.46-1.853-2.906-2.542-12.529-3.039-16.457-6.206-49.04-10.379-98.381-16.509-147.437.106-2.65.828-4.651,2.391-6.775ZM942.447,159.253c3.069-2.619,7.606-3.231,11.264-1.556,3.052,1.397,5.476,4.778,6.012,8.072,5.206,31.987,6.064,65.881,10.97,98.048.303,7.712-6.308,12.369-13.57,10.743l-78.237-25.996c-6.364-2.693-8.97-10.003-5.208-15.99l68.768-73.321Z" fill="#231f20"/><path d="M1115.92,347.248l215.452-230.087-249.81-83.095,34.358,313.182ZM1192.269,97.755l78.237,25.996c6.364,2.693,8.97,10.003,5.208,15.99l-68.768,73.321c-3.069,2.619-7.606,3.231-11.264,1.556-3.052-1.398-5.476-4.777-6.012-8.072-5.206-31.988-6.064-65.881-10.97-98.048-.303-7.712,6.307-12.369,13.57-10.742ZM1123.066,75.532c3.889-.073,20.545,5.529,23.833,7.797.66.455,2.188,1.829,2.591,2.461,1.853,2.906,2.542,12.528,3.039,16.456,6.206,49.04,10.379,98.382,16.509,147.437-.106,2.65-.828,4.651-2.391,6.775-2.831,3.848-12.827,14.44-16.509,17.519-5.464,4.569-13.359,2.341-16.521-3.776l-20.801-184.02c-.116-5.728,4.554-10.543,10.249-10.65Z" fill="#231f20"/><path d="M1410.092,452.096l-34.358-313.182-215.452,230.087,249.81,83.095ZM1325.006,229.703c2.831-3.848,12.827-14.44,16.509-17.519,5.464-4.569,13.359-2.341,16.521,3.776l20.801,184.02c.116,5.728-4.554,10.543-10.249,10.65-3.889.073-20.546-5.529-23.834-7.797-.66-.455-2.187-1.829-2.59-2.461-1.853-2.906-2.542-12.528-3.039-16.456-6.206-49.04-10.379-98.382-16.509-147.437.106-2.65.828-4.651,2.391-6.775ZM1284.708,273.101c3.069-2.619,7.607-3.231,11.264-1.556,3.052,1.398,5.476,4.777,6.012,8.072,5.206,31.988,6.064,65.881,10.97,98.048.303,7.712-6.307,12.369-13.57,10.742l-78.237-25.996c-6.364-2.693-8.97-10.003-5.208-15.99l68.768-73.321Z" fill="#231f20"/><path d="M1458.18,461.096l215.452-230.087-249.81-83.095,34.358,313.182ZM1534.53,211.603l78.237,25.996c6.364,2.693,8.97,10.003,5.208,15.99l-68.768,73.321c-3.069,2.619-7.607,3.231-11.264,1.556-3.052-1.397-5.476-4.778-6.012-8.072-5.206-31.988-6.064-65.881-10.97-98.048-.303-7.712,6.307-12.369,13.57-10.743ZM1465.327,189.38c3.889-.073,20.546,5.529,23.834,7.797.66.455,2.188,1.828,2.591,2.46,1.853,2.906,2.542,12.528,3.039,16.457,6.206,49.04,10.379,98.381,16.509,147.437-.106,2.65-.828,4.651-2.391,6.775-2.831,3.848-12.827,14.44-16.509,17.519-5.464,4.569-13.359,2.341-16.521-3.776l-20.801-184.02c-.116-5.728,4.554-10.543,10.249-10.65Z" fill="#231f20"/><path d="M1752.353,565.944l-34.358-313.182-215.452,230.087,249.81,83.096ZM1667.267,343.551c2.831-3.848,12.827-14.44,16.509-17.519,5.464-4.569,13.359-2.341,16.521,3.776l20.801,184.02c.116,5.728-4.554,10.543-10.249,10.65-3.889.073-20.546-5.529-23.833-7.797-.66-.455-2.187-1.828-2.591-2.46-1.853-2.906-2.542-12.529-3.039-16.457-6.206-49.04-10.379-98.381-16.509-147.437.106-2.65.828-4.651,2.391-6.775ZM1626.969,386.948c3.069-2.619,7.606-3.231,11.264-1.556,3.052,1.397,5.476,4.778,6.012,8.072,5.206,31.988,6.064,65.881,10.97,98.048.303,7.712-6.308,12.369-13.57,10.743l-78.237-25.996c-6.364-2.693-8.97-10.003-5.208-15.99l68.769-73.321Z" fill="#231f20"/><path d="M1800.441,574.943l215.452-230.087-249.81-83.095,34.358,313.182ZM1876.791,325.451l78.237,25.996c6.364,2.693,8.97,10.003,5.208,15.99l-68.768,73.321c-3.069,2.619-7.607,3.231-11.264,1.556-3.052-1.398-5.476-4.777-6.012-8.072-5.206-31.988-6.064-65.881-10.97-98.048-.302-7.712,6.307-12.369,13.57-10.742ZM1807.588,303.227c3.889-.073,20.546,5.529,23.834,7.797.66.455,2.187,1.829,2.591,2.461,1.853,2.906,2.542,12.528,3.039,16.456,6.206,49.04,10.379,98.382,16.509,147.437-.106,2.65-.828,4.651-2.391,6.775-2.831,3.848-12.827,14.44-16.509,17.519-5.464,4.569-13.359,2.341-16.52-3.776l-20.802-184.02c-.116-5.728,4.554-10.543,10.249-10.65Z" fill="#231f20"/><path d="M2094.614,679.791l-34.358-313.182-215.451,230.087,249.81,83.095ZM2009.527,457.399c2.83-3.848,12.827-14.44,16.509-17.519,5.464-4.569,13.359-2.341,16.521,3.776l20.801,184.02c.116,5.728-4.554,10.543-10.249,10.65-3.889.073-20.546-5.529-23.833-7.797-.66-.455-2.187-1.829-2.591-2.461-1.853-2.906-2.542-12.528-3.039-16.456-6.206-49.04-10.379-98.382-16.509-147.437.106-2.65.828-4.651,2.391-6.775ZM1969.23,500.796c3.069-2.619,7.606-3.231,11.264-1.556,3.052,1.398,5.476,4.777,6.012,8.072,5.206,31.988,6.064,65.881,10.97,98.048.303,7.712-6.308,12.369-13.57,10.742l-78.237-25.996c-6.364-2.693-8.97-10.003-5.208-15.99l68.769-73.321Z" fill="#231f20"/><path d="M104.256,372.522L69.898,59.339l-215.452,230.087,249.81,83.095ZM19.17,150.129c2.831-3.849,12.827-14.441,16.509-17.519,5.464-4.569,13.359-2.341,16.521,3.776l20.801,184.02c.116,5.728-4.554,10.543-10.249,10.65-3.889.073-20.546-5.529-23.834-7.797-.66-.455-2.188-1.829-2.59-2.461-1.853-2.906-2.542-12.528-3.039-16.456-6.206-49.04-10.379-98.382-16.509-147.437.106-2.65.828-4.651,2.391-6.775ZM-21.128,193.526c3.069-2.619,7.606-3.231,11.264-1.556,3.052,1.398,5.476,4.777,6.012,8.072,5.206,31.987,6.064,65.881,10.97,98.048.303,7.712-6.307,12.369-13.57,10.742l-78.237-25.996c-6.364-2.693-8.97-10.003-5.208-15.99L-21.128,193.526Z" fill="#231f20"/><path d="M152.344,381.521l215.452-230.087L117.986,68.339l34.358,313.182ZM228.694,132.028l78.237,25.996c6.364,2.693,8.97,10.003,5.208,15.99l-68.768,73.321c-3.069,2.619-7.606,3.231-11.264,1.556-3.052-1.398-5.476-4.778-6.012-8.072-5.206-31.987-6.064-65.881-10.97-98.048-.303-7.712,6.308-12.369,13.57-10.743ZM159.491,109.805c3.889-.073,20.545,5.529,23.834,7.797.66.455,2.187,1.829,2.59,2.461,1.853,2.906,2.542,12.528,3.039,16.457,6.206,49.04,10.379,98.381,16.509,147.437-.106,2.65-.828,4.651-2.391,6.775-2.831,3.848-12.827,14.44-16.509,17.519-5.464,4.569-13.359,2.341-16.521-3.776l-20.801-184.02c-.116-5.728,4.554-10.543,10.249-10.65Z" fill="#231f20"/><path d="M412.159,173.187l-215.452,230.087,249.81,83.095-34.358-313.182ZM335.809,422.68l-78.237-25.996c-6.364-2.693-8.97-10.003-5.208-15.99l68.768-73.321c3.069-2.619,7.606-3.231,11.264-1.556,3.052,1.397,5.476,4.777,6.012,8.072,5.206,31.988,6.064,65.881,10.97,98.048.303,7.712-6.308,12.369-13.57,10.743ZM405.012,444.903c-3.889.073-20.546-5.529-23.834-7.797-.66-.455-2.187-1.828-2.59-2.461-1.853-2.906-2.542-12.528-3.039-16.457-6.206-49.04-10.379-98.381-16.509-147.437.106-2.65.828-4.651,2.391-6.775,2.831-3.848,12.827-14.44,16.509-17.519,5.464-4.569,13.359-2.341,16.521,3.776l20.801,184.02c.116,5.728-4.554,10.543-10.249,10.65Z" fill="#231f20"/><path d="M494.605,495.369l215.452-230.087-249.81-83.095,34.358,313.182ZM570.954,245.876l78.237,25.996c6.364,2.693,8.97,10.003,5.208,15.99l-68.768,73.321c-3.069,2.619-7.606,3.231-11.264,1.556-3.052-1.398-5.476-4.777-6.012-8.072-5.206-31.988-6.064-65.881-10.97-98.048-.303-7.712,6.308-12.369,13.57-10.742ZM501.752,223.653c3.889-.073,20.545,5.529,23.834,7.797.66.455,2.187,1.828,2.59,2.461,1.853,2.906,2.542,12.528,3.039,16.457,6.206,49.04,10.379,98.381,16.509,147.437-.106,2.65-.828,4.651-2.391,6.775-2.831,3.848-12.827,14.44-16.509,17.519-5.464,4.569-13.36,2.341-16.521-3.776l-20.801-184.02c-.116-5.728,4.554-10.543,10.249-10.65Z" fill="#231f20"/><path d="M538.968,517.122l249.81,83.095-34.358-313.182-215.452,230.087ZM678.07,536.528l-78.237-25.996c-6.364-2.693-8.97-10.003-5.208-15.99l68.769-73.321c3.069-2.619,7.606-3.231,11.264-1.556,3.052,1.398,5.476,4.778,6.012,8.072,5.206,31.987,6.064,65.881,10.97,98.048.303,7.712-6.308,12.369-13.57,10.742ZM747.273,558.751c-3.889.073-20.546-5.529-23.834-7.797-.66-.455-2.187-1.829-2.59-2.46-1.853-2.906-2.542-12.528-3.039-16.457-6.206-49.04-10.379-98.381-16.509-147.437.106-2.65.828-4.651,2.391-6.775,2.831-3.848,12.827-14.441,16.509-17.519,5.464-4.569,13.359-2.341,16.521,3.776l20.801,184.02c.116,5.728-4.554,10.543-10.249,10.65Z" fill="#231f20"/><path d="M836.865,609.217l215.452-230.087-249.81-83.095,34.358,313.182ZM913.215,359.723l78.237,25.996c6.364,2.693,8.97,10.003,5.208,15.99l-68.768,73.32c-3.069,2.619-7.606,3.231-11.264,1.556-3.052-1.398-5.476-4.778-6.012-8.072-5.206-31.987-6.064-65.881-10.97-98.048-.303-7.712,6.308-12.369,13.57-10.743ZM844.012,337.5c3.889-.073,20.546,5.529,23.834,7.797.66.455,2.187,1.829,2.59,2.461,1.853,2.906,2.542,12.528,3.039,16.457,6.206,49.04,10.379,98.381,16.509,147.437-.106,2.65-.828,4.651-2.391,6.775-2.831,3.848-12.827,14.44-16.509,17.519-5.464,4.569-13.36,2.341-16.521-3.776l-20.801-184.02c-.116-5.728,4.554-10.543,10.249-10.65Z" fill="#231f20"/><path d="M881.228,630.969l249.81,83.095-34.358-313.182-215.452,230.087ZM1020.33,650.375l-78.237-25.996c-6.364-2.693-8.97-10.003-5.208-15.99l68.769-73.321c3.069-2.619,7.606-3.231,11.264-1.556,3.052,1.397,5.476,4.777,6.012,8.072,5.206,31.988,6.064,65.881,10.97,98.048.303,7.712-6.307,12.369-13.57,10.742ZM1089.533,672.598c-3.889.073-20.546-5.529-23.834-7.797-.66-.455-2.187-1.828-2.59-2.46-1.853-2.906-2.542-12.528-3.039-16.457-6.206-49.04-10.379-98.381-16.509-147.437.106-2.65.828-4.651,2.391-6.775,2.831-3.848,12.827-14.44,16.509-17.519,5.464-4.569,13.36-2.341,16.521,3.776l20.801,184.02c.116,5.728-4.554,10.543-10.249,10.65Z" fill="#231f20"/><path d="M1179.126,723.064l215.452-230.087-249.81-83.095,34.358,313.182ZM1255.476,473.571l78.237,25.996c6.364,2.693,8.97,10.003,5.208,15.99l-68.768,73.321c-3.069,2.619-7.606,3.231-11.264,1.556-3.052-1.397-5.476-4.777-6.012-8.072-5.206-31.988-6.064-65.881-10.97-98.048-.303-7.712,6.308-12.369,13.57-10.742ZM1186.273,451.348c3.889-.073,20.546,5.529,23.834,7.797.66.455,2.187,1.828,2.59,2.461,1.853,2.906,2.542,12.528,3.039,16.457,6.206,49.04,10.379,98.381,16.509,147.437-.106,2.65-.828,4.651-2.391,6.775-2.831,3.848-12.827,14.44-16.509,17.519-5.464,4.569-13.359,2.342-16.521-3.776l-20.801-184.02c-.116-5.728,4.554-10.543,10.249-10.65Z" fill="#231f20"/><path d="M1223.489,744.817l249.81,83.096-34.358-313.182-215.452,230.087ZM1362.591,764.223l-78.237-25.996c-6.364-2.693-8.97-10.003-5.208-15.99l68.769-73.32c3.069-2.619,7.606-3.231,11.264-1.556,3.052,1.398,5.476,4.778,6.012,8.072,5.206,31.987,6.064,65.881,10.97,98.048.303,7.712-6.307,12.369-13.57,10.743ZM1431.794,786.446c-3.889.073-20.546-5.529-23.834-7.797-.66-.455-2.188-1.829-2.59-2.46-1.853-2.906-2.542-12.528-3.039-16.457-6.206-49.04-10.379-98.381-16.509-147.437.106-2.65.828-4.651,2.391-6.775,2.831-3.848,12.827-14.44,16.509-17.519,5.464-4.569,13.36-2.341,16.521,3.776l20.801,184.02c.116,5.728-4.554,10.543-10.249,10.65Z" fill="#231f20"/><path d="M1736.839,606.825l-249.81-83.095,34.358,313.182,215.452-230.087ZM1597.737,587.419l78.237,25.996c6.364,2.693,8.97,10.003,5.208,15.99l-68.768,73.32c-3.069,2.619-7.607,3.231-11.264,1.556-3.052-1.398-5.476-4.778-6.012-8.072-5.206-31.987-6.064-65.881-10.97-98.048-.303-7.712,6.307-12.369,13.57-10.742ZM1528.534,565.195c3.889-.073,20.546,5.529,23.834,7.797.66.455,2.187,1.829,2.59,2.461,1.853,2.906,2.542,12.528,3.039,16.457,6.206,49.04,10.379,98.381,16.509,147.437-.106,2.65-.828,4.651-2.391,6.775-2.831,3.848-12.827,14.441-16.509,17.519-5.464,4.569-13.359,2.341-16.521-3.776l-20.801-184.02c-.116-5.728,4.554-10.543,10.249-10.65Z" fill="#231f20"/><path d="M1781.201,628.578l-215.452,230.087,249.81,83.095-34.358-313.182ZM1704.852,878.07l-78.237-25.996c-6.364-2.693-8.97-10.003-5.208-15.99l68.769-73.321c3.069-2.619,7.606-3.231,11.264-1.556,3.052,1.398,5.476,4.777,6.012,8.072,5.206,31.988,6.064,65.881,10.97,98.048.303,7.712-6.308,12.369-13.57,10.742ZM1774.055,900.294c-3.889.073-20.545-5.529-23.833-7.797-.66-.455-2.187-1.828-2.591-2.461-1.853-2.906-2.542-12.528-3.039-16.457-6.206-49.04-10.379-98.381-16.509-147.437.106-2.65.828-4.651,2.391-6.775,2.831-3.848,12.827-14.44,16.509-17.519,5.464-4.569,13.36-2.341,16.521,3.776l20.801,184.02c.117,5.728-4.554,10.543-10.249,10.65Z" fill="#231f20"/><path d="M1829.29,637.577l34.358,313.182,215.452-230.087-249.81-83.095ZM1914.376,859.97c-2.831,3.848-12.827,14.44-16.509,17.519-5.464,4.569-13.359,2.341-16.521-3.776l-20.801-184.02c-.116-5.728,4.554-10.543,10.249-10.65,3.889-.073,20.546,5.529,23.833,7.797.66.455,2.188,1.828,2.591,2.461,1.853,2.906,2.542,12.528,3.039,16.457,6.206,49.04,10.379,98.381,16.509,147.437-.106,2.65-.828,4.651-2.391,6.775ZM1954.674,816.573c-3.069,2.619-7.606,3.231-11.264,1.556-3.052-1.397-5.476-4.777-6.012-8.072-5.206-31.988-6.064-65.881-10.97-98.048-.302-7.712,6.307-12.369,13.57-10.743l78.237,25.996c6.364,2.693,8.97,10.003,5.208,15.99l-68.768,73.321Z" fill="#231f20"/><path d="M2123.462,742.425l-215.452,230.087,249.81,83.095-34.358-313.182ZM2047.113,991.918l-78.237-25.996c-6.364-2.693-8.97-10.003-5.208-15.99l68.769-73.32c3.069-2.619,7.606-3.231,11.264-1.556,3.052,1.398,5.476,4.778,6.012,8.072,5.206,31.987,6.064,65.881,10.97,98.048.302,7.712-6.308,12.369-13.57,10.743ZM2116.315,1014.141c-3.889.073-20.545-5.529-23.833-7.797-.66-.455-2.187-1.829-2.591-2.461-1.853-2.906-2.542-12.528-3.039-16.457-6.206-49.04-10.379-98.381-16.509-147.437.106-2.65.828-4.651,2.391-6.775,2.83-3.848,12.827-14.44,16.509-17.519,5.464-4.569,13.36-2.341,16.521,3.776l20.801,184.02c.116,5.728-4.554,10.543-10.249,10.65Z" fill="#231f20"/><path d="M93.153,411.719l-249.81-83.096,34.358,313.182,215.452-230.087ZM-45.949,392.313l78.237,25.996c6.364,2.693,8.97,10.003,5.208,15.99l-68.768,73.32c-3.069,2.619-7.606,3.231-11.264,1.556-3.052-1.397-5.476-4.778-6.012-8.072-5.206-31.987-6.064-65.881-10.97-98.048-.303-7.712,6.308-12.369,13.57-10.743ZM-115.152,370.09c3.889-.073,20.545,5.529,23.834,7.797.66.455,2.187,1.828,2.59,2.46,1.853,2.906,2.542,12.529,3.039,16.457,6.206,49.04,10.379,98.381,16.509,147.437-.106,2.65-.828,4.651-2.391,6.775-2.831,3.848-12.827,14.44-16.509,17.519-5.464,4.569-13.359,2.341-16.521-3.776l-20.801-184.02c-.116-5.728,4.554-10.543,10.249-10.65Z" fill="#231f20"/><path d="M171.874,746.654l-34.358-313.182-215.452,230.087,249.81,83.095ZM86.787,524.261c2.831-3.848,12.827-14.44,16.509-17.519,5.464-4.569,13.359-2.341,16.521,3.776l20.801,184.02c.116,5.728-4.554,10.543-10.249,10.65-3.889.073-20.546-5.529-23.834-7.797-.66-.455-2.187-1.828-2.59-2.46-1.853-2.906-2.542-12.528-3.039-16.457-6.206-49.04-10.379-98.381-16.509-147.437.106-2.65.828-4.651,2.391-6.775ZM46.489,567.658c3.069-2.619,7.606-3.231,11.264-1.556,3.052,1.398,5.476,4.778,6.012,8.072,5.206,31.988,6.064,65.881,10.97,98.048.303,7.712-6.308,12.369-13.57,10.743l-78.237-25.996c-6.364-2.693-8.97-10.003-5.208-15.99l68.769-73.321Z" fill="#231f20"/><path d="M435.413,525.566l-249.81-83.095,34.358,313.182,215.452-230.087ZM296.311,506.16l78.237,25.996c6.364,2.693,8.97,10.003,5.208,15.99l-68.769,73.321c-3.069,2.619-7.606,3.231-11.264,1.556-3.052-1.398-5.476-4.777-6.012-8.072-5.206-31.988-6.064-65.881-10.97-98.048-.303-7.712,6.308-12.369,13.57-10.742ZM227.108,483.937c3.889-.073,20.546,5.529,23.834,7.797.66.455,2.187,1.829,2.59,2.461,1.853,2.906,2.542,12.528,3.039,16.456,6.206,49.04,10.379,98.382,16.509,147.437-.106,2.65-.828,4.651-2.391,6.775-2.831,3.849-12.827,14.44-16.509,17.519-5.464,4.569-13.359,2.341-16.521-3.776l-20.801-184.02c-.116-5.728,4.554-10.543,10.249-10.65Z" fill="#231f20"/><path d="M514.134,860.501l-34.358-313.182-215.452,230.087,249.81,83.095ZM429.048,638.109c2.831-3.848,12.827-14.441,16.509-17.519,5.464-4.569,13.359-2.341,16.521,3.776l20.801,184.02c.116,5.728-4.554,10.543-10.249,10.65-3.889.073-20.546-5.529-23.834-7.797-.66-.455-2.187-1.829-2.59-2.461-1.853-2.906-2.542-12.528-3.039-16.456-6.206-49.04-10.379-98.382-16.509-147.437.106-2.65.828-4.651,2.391-6.775ZM388.75,681.506c3.069-2.619,7.607-3.231,11.264-1.556,3.052,1.398,5.476,4.777,6.012,8.072,5.206,31.987,6.064,65.881,10.97,98.048.303,7.712-6.308,12.369-13.57,10.742l-78.237-25.996c-6.364-2.693-8.97-10.003-5.208-15.99l68.768-73.32Z" fill="#231f20"/><path d="M527.864,556.319l34.358,313.182,215.452-230.087-249.81-83.096ZM612.951,778.711c-2.831,3.848-12.827,14.44-16.509,17.519-5.464,4.569-13.36,2.341-16.521-3.776l-20.801-184.02c-.116-5.728,4.554-10.543,10.249-10.65,3.889-.073,20.545,5.529,23.834,7.797.66.455,2.187,1.829,2.59,2.46,1.853,2.906,2.542,12.528,3.039,16.457,6.206,49.04,10.379,98.381,16.509,147.437-.106,2.65-.828,4.651-2.391,6.775ZM653.248,735.314c-3.069,2.619-7.606,3.231-11.264,1.556-3.052-1.398-5.476-4.778-6.012-8.072-5.206-31.987-6.064-65.881-10.97-98.048-.303-7.712,6.308-12.369,13.57-10.743l78.237,25.996c6.364,2.693,8.97,10.003,5.208,15.99l-68.769,73.32Z" fill="#231f20"/><path d="M856.395,974.349l-34.358-313.182-215.452,230.087,249.81,83.095ZM771.309,751.956c2.831-3.848,12.827-14.44,16.509-17.519,5.464-4.569,13.359-2.341,16.521,3.776l20.801,184.02c.116,5.728-4.554,10.543-10.249,10.65-3.889.073-20.546-5.529-23.834-7.797-.66-.455-2.187-1.828-2.59-2.461-1.853-2.906-2.542-12.528-3.039-16.457-6.206-49.04-10.379-98.381-16.509-147.437.106-2.65.828-4.651,2.391-6.775ZM731.011,795.353c3.069-2.619,7.606-3.231,11.264-1.556,3.052,1.397,5.476,4.777,6.012,8.072,5.206,31.988,6.064,65.881,10.97,98.048.303,7.712-6.308,12.369-13.57,10.742l-78.237-25.996c-6.364-2.693-8.97-10.003-5.208-15.99l68.768-73.321Z" fill="#231f20"/><path d="M870.125,670.166l34.358,313.182,215.452-230.087-249.81-83.095ZM955.211,892.559c-2.831,3.848-12.827,14.44-16.509,17.519-5.464,4.569-13.36,2.341-16.521-3.776l-20.801-184.02c-.116-5.728,4.554-10.543,10.249-10.65,3.889-.073,20.546,5.529,23.834,7.797.66.455,2.187,1.828,2.59,2.46,1.853,2.906,2.542,12.528,3.039,16.457,6.206,49.04,10.379,98.381,16.509,147.437-.106,2.65-.828,4.651-2.391,6.775ZM995.509,849.162c-3.069,2.619-7.606,3.231-11.264,1.556-3.052-1.398-5.476-4.777-6.012-8.072-5.206-31.988-6.064-65.881-10.97-98.048-.303-7.712,6.308-12.369,13.57-10.742l78.237,25.996c6.364,2.693,8.97,10.003,5.208,15.99l-68.769,73.321Z" fill="#231f20"/><path d="M1198.656,1088.197l-34.358-313.182-215.452,230.087,249.81,83.095ZM1113.569,865.804c2.831-3.848,12.827-14.44,16.509-17.519,5.464-4.569,13.359-2.341,16.521,3.776l20.801,184.02c.116,5.728-4.554,10.543-10.249,10.65-3.889.073-20.546-5.529-23.834-7.797-.66-.455-2.187-1.828-2.59-2.46-1.853-2.906-2.542-12.528-3.039-16.457-6.206-49.04-10.379-98.381-16.509-147.437.106-2.65.828-4.651,2.391-6.775ZM1073.271,909.201c3.069-2.619,7.606-3.231,11.264-1.556,3.052,1.398,5.476,4.778,6.012,8.072,5.206,31.987,6.064,65.881,10.97,98.048.303,7.712-6.308,12.369-13.57,10.742l-78.237-25.996c-6.364-2.693-8.97-10.003-5.208-15.99l68.768-73.321Z" fill="#231f20"/><path d="M1212.386,784.014l34.358,313.182,215.452-230.087-249.81-83.095ZM1297.472,1006.407c-2.831,3.848-12.827,14.44-16.509,17.519-5.464,4.569-13.359,2.341-16.521-3.776l-20.801-184.02c-.116-5.728,4.554-10.543,10.249-10.65,3.889-.073,20.546,5.529,23.834,7.797.66.455,2.187,1.829,2.59,2.461,1.853,2.906,2.542,12.528,3.039,16.457,6.206,49.04,10.379,98.381,16.509,147.437-.106,2.65-.828,4.651-2.391,6.775ZM1337.77,963.01c-3.069,2.619-7.606,3.231-11.264,1.556-3.052-1.398-5.476-4.778-6.012-8.072-5.206-31.987-6.064-65.881-10.97-98.048-.303-7.712,6.307-12.369,13.57-10.743l78.237,25.996c6.364,2.693,8.97,10.003,5.208,15.99l-68.769,73.321Z" fill="#231f20"/><path d="M1540.917,1202.044l-34.358-313.182-215.452,230.087,249.81,83.095ZM1455.83,979.651c2.831-3.848,12.827-14.44,16.509-17.519,5.464-4.569,13.359-2.341,16.521,3.776l20.801,184.02c.116,5.728-4.554,10.543-10.249,10.65-3.889.073-20.546-5.529-23.834-7.797-.66-.455-2.187-1.828-2.59-2.46-1.853-2.906-2.542-12.528-3.039-16.457-6.206-49.04-10.379-98.382-16.509-147.437.106-2.65.828-4.651,2.391-6.775ZM1415.532,1023.048c3.069-2.619,7.606-3.231,11.264-1.556,3.052,1.397,5.476,4.777,6.012,8.072,5.206,31.988,6.064,65.881,10.97,98.048.302,7.712-6.308,12.369-13.57,10.742l-78.237-25.996c-6.364-2.693-8.97-10.003-5.208-15.99l68.768-73.321Z" fill="#231f20"/><path d="M1554.646,897.862l34.358,313.182,215.452-230.087-249.81-83.095ZM1639.733,1120.254c-2.831,3.848-12.827,14.44-16.509,17.519-5.464,4.569-13.36,2.341-16.521-3.776l-20.801-184.02c-.116-5.728,4.554-10.543,10.249-10.65,3.889-.073,20.546,5.529,23.834,7.797.66.455,2.187,1.828,2.59,2.461,1.853,2.906,2.542,12.528,3.039,16.457,6.206,49.04,10.379,98.381,16.509,147.437-.106,2.65-.828,4.651-2.391,6.775ZM1680.03,1076.857c-3.069,2.619-7.606,3.231-11.264,1.556-3.052-1.397-5.476-4.777-6.012-8.072-5.206-31.988-6.064-65.881-10.97-98.048-.303-7.712,6.307-12.369,13.57-10.742l78.237,25.996c6.364,2.693,8.97,10.003,5.208,15.99l-68.769,73.321Z" fill="#231f20"/><path d="M1848.819,1002.709l-215.452,230.087,249.81,83.095-34.358-313.182ZM1772.469,1252.203l-78.237-25.996c-6.364-2.693-8.97-10.003-5.208-15.99l68.768-73.321c3.069-2.619,7.607-3.231,11.264-1.556,3.052,1.397,5.476,4.778,6.012,8.072,5.206,31.987,6.064,65.88,10.97,98.048.302,7.712-6.308,12.369-13.57,10.743ZM1841.672,1274.426c-3.889.073-20.546-5.529-23.834-7.797-.66-.455-2.187-1.829-2.59-2.461-1.853-2.906-2.542-12.528-3.039-16.457-6.206-49.04-10.379-98.381-16.509-147.437.106-2.65.828-4.651,2.391-6.776,2.831-3.848,12.827-14.44,16.509-17.519,5.464-4.569,13.359-2.341,16.521,3.776l20.801,184.02c.116,5.728-4.554,10.543-10.249,10.65Z" fill="#231f20"/><path d="M1896.907,1011.709l34.358,313.182,215.452-230.087-249.81-83.095ZM1981.993,1234.102c-2.831,3.848-12.827,14.441-16.509,17.519-5.464,4.569-13.36,2.341-16.521-3.776l-20.801-184.02c-.116-5.728,4.554-10.543,10.249-10.65,3.889-.073,20.546,5.529,23.834,7.797.66.455,2.187,1.828,2.59,2.461,1.853,2.906,2.542,12.528,3.039,16.457,6.206,49.04,10.379,98.382,16.509,147.437-.106,2.65-.828,4.651-2.391,6.775ZM2022.291,1190.705c-3.069,2.619-7.606,3.231-11.264,1.556-3.052-1.398-5.476-4.778-6.012-8.072-5.206-31.987-6.064-65.881-10.97-98.048-.303-7.712,6.307-12.369,13.57-10.742l78.237,25.996c6.364,2.693,8.97,10.003,5.208,15.99l-68.769,73.321Z" fill="#231f20"/><path d="M2191.08,1116.557l-215.452,230.087,249.81,83.095-34.358-313.182ZM2114.73,1366.05l-78.237-25.996c-6.364-2.693-8.97-10.003-5.208-15.99l68.768-73.321c3.069-2.619,7.606-3.231,11.264-1.556,3.052,1.398,5.476,4.778,6.012,8.072,5.206,31.988,6.064,65.881,10.97,98.048.303,7.712-6.307,12.369-13.57,10.743ZM2183.933,1388.273c-3.889.073-20.546-5.529-23.834-7.797-.659-.455-2.187-1.828-2.59-2.461-1.853-2.906-2.542-12.528-3.039-16.457-6.206-49.04-10.379-98.381-16.509-147.437.106-2.65.828-4.651,2.391-6.775,2.831-3.849,12.827-14.44,16.509-17.519,5.464-4.569,13.36-2.341,16.521,3.776l20.802,184.02c.116,5.728-4.554,10.543-10.25,10.65Z" fill="#231f20"/><path d="M-59.093,1017.622l215.452-230.087-249.81-83.095,34.358,313.182ZM17.257,768.129l78.237,25.996c6.364,2.693,8.97,10.003,5.208,15.99l-68.768,73.32c-3.069,2.619-7.606,3.231-11.264,1.556-3.052-1.398-5.476-4.777-6.012-8.072-5.206-31.988-6.064-65.881-10.97-98.048-.303-7.712,6.308-12.369,13.57-10.742ZM-51.946,745.906c3.889-.073,20.545,5.529,23.834,7.797.66.455,2.187,1.829,2.59,2.461,1.853,2.906,2.542,12.528,3.039,16.456,6.206,49.04,10.379,98.382,16.509,147.437-.106,2.65-.828,4.651-2.391,6.775-2.831,3.848-12.827,14.44-16.509,17.519-5.464,4.569-13.359,2.341-16.521-3.776l-20.801-184.02c-.116-5.728,4.554-10.543,10.249-10.65Z" fill="#231f20"/><path d="M235.08,1122.469l-34.358-313.182L-14.73,1039.374l249.81,83.095ZM149.994,900.077c2.831-3.848,12.827-14.44,16.509-17.519,5.464-4.569,13.36-2.341,16.521,3.776l20.801,184.02c.116,5.728-4.554,10.543-10.249,10.65-3.889.073-20.546-5.529-23.834-7.797-.66-.455-2.187-1.829-2.59-2.461-1.853-2.906-2.542-12.528-3.039-16.456-6.206-49.04-10.379-98.382-16.509-147.437.106-2.65.828-4.651,2.391-6.775ZM109.696,943.474c3.069-2.619,7.607-3.231,11.264-1.556,3.052,1.398,5.476,4.777,6.012,8.072,5.206,31.988,6.064,65.881,10.97,98.048.303,7.712-6.308,12.369-13.57,10.742l-78.237-25.996c-6.364-2.693-8.97-10.003-5.208-15.99l68.768-73.321Z" fill="#231f20"/><path d="M248.81,818.287l34.358,313.182,215.452-230.087-249.81-83.096ZM333.896,1040.68c-2.831,3.848-12.827,14.44-16.509,17.519-5.464,4.569-13.359,2.341-16.521-3.776l-20.801-184.02c-.116-5.728,4.554-10.543,10.249-10.65,3.889-.073,20.546,5.529,23.834,7.797.66.455,2.187,1.828,2.59,2.46,1.853,2.906,2.542,12.528,3.039,16.457,6.206,49.04,10.379,98.381,16.509,147.437-.106,2.65-.828,4.651-2.391,6.775ZM374.194,997.283c-3.069,2.619-7.606,3.231-11.264,1.556-3.052-1.397-5.476-4.778-6.012-8.072-5.206-31.988-6.064-65.881-10.97-98.048-.303-7.712,6.308-12.369,13.57-10.743l78.237,25.996c6.364,2.693,8.97,10.003,5.208,15.99l-68.768,73.321Z" fill="#231f20"/><path d="M327.531,1153.222l249.81,83.095-34.358-313.182-215.452,230.087ZM466.633,1172.628l-78.237-25.996c-6.364-2.693-8.97-10.003-5.208-15.99l68.768-73.321c3.069-2.619,7.607-3.231,11.264-1.556,3.052,1.397,5.476,4.778,6.012,8.072,5.206,31.988,6.064,65.881,10.97,98.048.303,7.712-6.308,12.369-13.57,10.743ZM535.836,1194.851c-3.889.073-20.546-5.529-23.834-7.797-.66-.455-2.187-1.828-2.59-2.46-1.853-2.906-2.542-12.529-3.039-16.457-6.206-49.04-10.379-98.381-16.509-147.437.106-2.65.828-4.651,2.391-6.775,2.831-3.848,12.827-14.44,16.509-17.519,5.464-4.569,13.359-2.341,16.521,3.776l20.801,184.02c.116,5.728-4.554,10.543-10.249,10.65Z" fill="#231f20"/><path d="M591.071,932.135l34.358,313.182,215.452-230.087-249.81-83.095ZM676.157,1154.527c-2.831,3.848-12.827,14.44-16.509,17.519-5.464,4.569-13.359,2.341-16.521-3.776l-20.801-184.02c-.116-5.728,4.554-10.543,10.249-10.65,3.889-.073,20.546,5.529,23.834,7.797.66.455,2.187,1.829,2.59,2.461,1.853,2.906,2.542,12.528,3.039,16.456,6.206,49.04,10.379,98.382,16.509,147.437-.106,2.65-.828,4.651-2.391,6.775ZM716.455,1111.13c-3.069,2.619-7.607,3.231-11.264,1.556-3.052-1.398-5.476-4.777-6.012-8.072-5.206-31.988-6.064-65.881-10.97-98.048-.303-7.712,6.308-12.369,13.57-10.742l78.237,25.996c6.364,2.693,8.97,10.003,5.208,15.99l-68.768,73.321Z" fill="#231f20"/><path d="M669.792,1267.07l249.81,83.095-34.358-313.182-215.452,230.087ZM808.894,1286.476l-78.237-25.996c-6.364-2.693-8.97-10.003-5.208-15.99l68.768-73.321c3.069-2.619,7.606-3.231,11.264-1.556,3.052,1.397,5.476,4.777,6.012,8.072,5.206,31.988,6.064,65.881,10.97,98.048.303,7.712-6.308,12.369-13.57,10.742ZM878.097,1308.699c-3.889.073-20.546-5.529-23.834-7.797-.66-.455-2.187-1.829-2.59-2.461-1.853-2.906-2.542-12.528-3.039-16.456-6.206-49.04-10.379-98.382-16.509-147.437.106-2.65.828-4.651,2.391-6.776,2.831-3.848,12.827-14.44,16.509-17.519,5.464-4.569,13.359-2.341,16.521,3.776l20.801,184.02c.116,5.728-4.554,10.543-10.249,10.65Z" fill="#231f20"/><path d="M933.331,1045.982l34.358,313.182,215.452-230.087-249.81-83.095ZM1018.418,1268.375c-2.831,3.848-12.827,14.44-16.509,17.519-5.464,4.569-13.359,2.341-16.521-3.776l-20.801-184.02c-.116-5.728,4.554-10.543,10.249-10.65,3.889-.073,20.546,5.529,23.834,7.797.66.455,2.187,1.828,2.59,2.46,1.853,2.906,2.542,12.529,3.039,16.457,6.206,49.04,10.379,98.381,16.509,147.437-.106,2.65-.828,4.651-2.391,6.775ZM1058.716,1224.978c-3.069,2.619-7.606,3.231-11.264,1.556-3.052-1.397-5.476-4.778-6.012-8.072-5.206-31.987-6.064-65.881-10.97-98.048-.303-7.712,6.307-12.369,13.57-10.743l78.237,25.996c6.364,2.693,8.97,10.003,5.208,15.99l-68.768,73.321Z" fill="#231f20"/><path d="M1012.052,1380.917l249.81,83.095-34.358-313.182-215.452,230.087ZM1151.155,1400.323l-78.237-25.996c-6.364-2.693-8.97-10.003-5.208-15.99l68.768-73.321c3.069-2.619,7.606-3.231,11.264-1.556,3.052,1.398,5.476,4.778,6.012,8.072,5.206,31.988,6.064,65.88,10.97,98.048.303,7.712-6.307,12.369-13.57,10.743ZM1220.357,1422.546c-3.889.073-20.545-5.529-23.833-7.797-.66-.455-2.188-1.829-2.591-2.46-1.853-2.906-2.542-12.529-3.039-16.457-6.206-49.04-10.379-98.381-16.509-147.437.106-2.65.828-4.651,2.391-6.776,2.831-3.848,12.827-14.44,16.509-17.519,5.464-4.569,13.359-2.341,16.521,3.776l20.801,184.02c.116,5.728-4.554,10.543-10.249,10.65Z" fill="#231f20"/><path d="M1275.592,1159.83l34.358,313.182,215.452-230.087-249.81-83.095ZM1360.679,1382.223c-2.831,3.848-12.827,14.44-16.509,17.519-5.464,4.569-13.36,2.342-16.521-3.776l-20.801-184.02c-.116-5.728,4.554-10.543,10.249-10.65,3.889-.073,20.546,5.529,23.834,7.797.66.455,2.188,1.828,2.591,2.461,1.853,2.906,2.542,12.528,3.039,16.456,6.206,49.04,10.379,98.382,16.509,147.437-.106,2.65-.828,4.651-2.391,6.776ZM1400.976,1338.825c-3.069,2.619-7.606,3.231-11.264,1.556-3.052-1.398-5.476-4.777-6.012-8.072-5.206-31.988-6.064-65.881-10.97-98.048-.303-7.712,6.307-12.369,13.57-10.742l78.237,25.996c6.364,2.693,8.97,10.003,5.208,15.99l-68.768,73.321Z" fill="#231f20"/><path d="M1569.765,1264.678l-215.452,230.087,249.81,83.095-34.358-313.182ZM1493.415,1514.171l-78.237-25.996c-6.364-2.693-8.97-10.003-5.208-15.99l68.768-73.321c3.069-2.619,7.606-3.231,11.264-1.556,3.052,1.398,5.476,4.778,6.012,8.072,5.206,31.988,6.064,65.881,10.97,98.048.303,7.712-6.307,12.369-13.57,10.743ZM1562.618,1536.394c-3.889.073-20.545-5.529-23.833-7.797-.66-.455-2.188-1.828-2.591-2.461-1.853-2.906-2.542-12.528-3.039-16.456-6.206-49.04-10.379-98.382-16.509-147.437.106-2.65.828-4.651,2.391-6.776,2.831-3.848,12.827-14.44,16.509-17.519,5.464-4.569,13.359-2.341,16.521,3.776l20.801,184.019c.116,5.728-4.554,10.543-10.249,10.65Z" fill="#231f20"/><path d="M1617.853,1273.677l34.358,313.182,215.452-230.087-249.81-83.095ZM1702.939,1496.07c-2.831,3.849-12.827,14.44-16.509,17.519-5.464,4.569-13.359,2.341-16.521-3.776l-20.801-184.02c-.116-5.728,4.554-10.543,10.249-10.65,3.889-.073,20.546,5.529,23.834,7.797.66.455,2.188,1.829,2.59,2.46,1.853,2.906,2.542,12.528,3.039,16.457,6.206,49.04,10.379,98.381,16.509,147.437-.106,2.65-.828,4.651-2.391,6.775ZM1743.237,1452.673c-3.069,2.619-7.606,3.231-11.264,1.556-3.052-1.398-5.476-4.778-6.012-8.073-5.206-31.987-6.064-65.88-10.97-98.048-.303-7.712,6.307-12.369,13.57-10.743l78.237,25.996c6.364,2.693,8.97,10.003,5.208,15.99l-68.769,73.321Z" fill="#231f20"/><path d="M1912.026,1378.526l-215.452,230.087,249.81,83.095-34.358-313.182ZM1835.676,1628.019l-78.237-25.996c-6.364-2.693-8.97-10.003-5.208-15.99l68.768-73.321c3.069-2.619,7.607-3.231,11.264-1.556,3.052,1.397,5.476,4.777,6.012,8.072,5.206,31.987,6.064,65.881,10.97,98.048.302,7.712-6.307,12.369-13.57,10.743ZM1904.879,1650.241c-3.889.073-20.546-5.529-23.834-7.797-.659-.455-2.187-1.828-2.59-2.46-1.853-2.906-2.542-12.528-3.039-16.456-6.206-49.041-10.379-98.382-16.509-147.437.106-2.65.828-4.651,2.391-6.775,2.831-3.848,12.827-14.44,16.509-17.519,5.464-4.569,13.36-2.341,16.521,3.776l20.801,184.02c.116,5.728-4.554,10.543-10.25,10.65Z" fill="#231f20"/><path d="M1960.114,1387.525l34.358,313.182,215.452-230.087-249.81-83.095ZM2045.2,1609.918c-2.831,3.848-12.827,14.44-16.509,17.519-5.464,4.569-13.359,2.341-16.521-3.776l-20.801-184.02c-.116-5.728,4.554-10.543,10.249-10.65,3.889-.073,20.546,5.529,23.834,7.797.66.455,2.188,1.829,2.59,2.461,1.853,2.906,2.542,12.528,3.039,16.457,6.206,49.04,10.379,98.381,16.509,147.437-.106,2.65-.828,4.651-2.391,6.775ZM2085.498,1566.521c-3.069,2.619-7.606,3.231-11.264,1.556-3.052-1.398-5.476-4.777-6.012-8.072-5.206-31.988-6.064-65.881-10.97-98.048-.302-7.712,6.308-12.369,13.57-10.743l78.237,25.996c6.364,2.693,8.97,10.003,5.208,15.99l-68.769,73.321Z" fill="#231f20"/><path d="M2254.287,1492.373l-215.452,230.087,249.81,83.095-34.358-313.182ZM2177.937,1741.866l-78.237-25.996c-6.364-2.692-8.97-10.003-5.208-15.99l68.768-73.321c3.069-2.619,7.607-3.231,11.264-1.556,3.052,1.397,5.476,4.777,6.012,8.072,5.206,31.987,6.064,65.88,10.97,98.048.302,7.712-6.308,12.369-13.57,10.742ZM2247.14,1764.089c-3.889.073-20.545-5.53-23.834-7.797-.659-.455-2.187-1.829-2.59-2.461-1.853-2.906-2.542-12.528-3.039-16.456-6.206-49.04-10.379-98.382-16.509-147.437.106-2.65.828-4.651,2.391-6.775,2.831-3.849,12.827-14.441,16.509-17.519,5.464-4.569,13.36-2.341,16.521,3.776l20.802,184.02c.116,5.728-4.554,10.543-10.25,10.65Z" fill="#231f20"/><path d="M223.977,1161.667l-249.81-83.095,34.358,313.182,215.452-230.087ZM84.875,1142.26l78.237,25.996c6.364,2.693,8.97,10.003,5.208,15.99l-68.769,73.321c-3.069,2.619-7.606,3.231-11.264,1.556-3.052-1.397-5.476-4.778-6.012-8.072-5.206-31.988-6.064-65.881-10.97-98.048-.303-7.712,6.308-12.369,13.57-10.743ZM15.672,1120.038c3.889-.073,20.546,5.529,23.834,7.797.66.455,2.187,1.828,2.59,2.46,1.853,2.906,2.542,12.528,3.039,16.457,6.206,49.04,10.379,98.381,16.509,147.437-.106,2.65-.828,4.651-2.391,6.776-2.831,3.848-12.827,14.44-16.509,17.519-5.464,4.569-13.36,2.341-16.521-3.776l-20.801-184.02c-.116-5.728,4.554-10.543,10.249-10.65Z" fill="#231f20"/><path d="M52.888,1413.506l249.81,83.095-34.358-313.182-215.452,230.087ZM191.99,1432.913l-78.237-25.996c-6.364-2.693-8.97-10.003-5.208-15.99l68.768-73.321c3.069-2.619,7.606-3.231,11.264-1.556,3.052,1.397,5.476,4.778,6.012,8.072,5.206,31.987,6.064,65.881,10.97,98.048.303,7.712-6.308,12.369-13.57,10.743ZM261.193,1455.135c-3.889.073-20.546-5.529-23.834-7.797-.66-.455-2.187-1.828-2.59-2.46-1.853-2.906-2.542-12.529-3.039-16.457-6.206-49.04-10.379-98.381-16.509-147.437.106-2.65.828-4.651,2.391-6.775,2.831-3.848,12.827-14.44,16.509-17.519,5.464-4.569,13.36-2.341,16.521,3.776l20.801,184.02c.116,5.728-4.554,10.543-10.249,10.65Z" fill="#231f20"/><path d="M566.238,1275.514l-249.81-83.095,34.358,313.182,215.452-230.087ZM427.135,1256.108l78.237,25.996c6.364,2.693,8.97,10.003,5.208,15.99l-68.769,73.321c-3.069,2.619-7.606,3.231-11.264,1.556-3.052-1.397-5.476-4.777-6.012-8.072-5.206-31.988-6.064-65.881-10.97-98.048-.303-7.712,6.308-12.369,13.57-10.742ZM357.932,1233.885c3.889-.073,20.546,5.529,23.834,7.797.66.455,2.187,1.829,2.59,2.461,1.853,2.906,2.542,12.528,3.039,16.456,6.206,49.04,10.379,98.382,16.509,147.437-.106,2.65-.828,4.651-2.391,6.776-2.831,3.848-12.827,14.44-16.509,17.519-5.464,4.569-13.359,2.341-16.521-3.776l-20.801-184.02c-.116-5.728,4.554-10.543,10.249-10.65Z" fill="#231f20"/><path d="M610.6,1297.267l-215.452,230.087,249.81,83.095-34.358-313.182ZM534.251,1546.76l-78.237-25.996c-6.364-2.693-8.97-10.003-5.208-15.99l68.768-73.321c3.069-2.619,7.606-3.231,11.264-1.556,3.052,1.397,5.476,4.777,6.012,8.072,5.206,31.988,6.064,65.881,10.97,98.048.303,7.712-6.308,12.369-13.57,10.742ZM603.454,1568.983c-3.889.073-20.545-5.529-23.834-7.797-.66-.455-2.187-1.829-2.59-2.461-1.853-2.906-2.542-12.528-3.039-16.456-6.206-49.04-10.379-98.382-16.509-147.437.106-2.65.828-4.651,2.391-6.776,2.831-3.848,12.827-14.44,16.509-17.519,5.464-4.569,13.36-2.342,16.521,3.776l20.801,184.02c.116,5.728-4.554,10.543-10.249,10.65Z" fill="#231f20"/><path d="M908.498,1389.362l-249.81-83.095,34.358,313.183,215.452-230.087ZM769.396,1369.956l78.237,25.996c6.364,2.693,8.97,10.003,5.208,15.99l-68.768,73.321c-3.069,2.619-7.607,3.231-11.264,1.556-3.052-1.398-5.476-4.778-6.012-8.072-5.206-31.988-6.064-65.881-10.97-98.048-.303-7.712,6.308-12.369,13.57-10.743ZM700.193,1347.733c3.889-.073,20.546,5.529,23.834,7.797.66.455,2.187,1.828,2.59,2.46,1.853,2.906,2.542,12.529,3.039,16.457,6.206,49.04,10.379,98.381,16.509,147.437-.106,2.65-.828,4.651-2.391,6.775-2.831,3.848-12.827,14.44-16.509,17.519-5.464,4.569-13.359,2.342-16.521-3.776l-20.801-184.02c-.116-5.728,4.554-10.543,10.249-10.65Z" fill="#231f20"/><path d="M952.861,1411.115l-215.452,230.087,249.81,83.095-34.358-313.182ZM876.511,1660.608l-78.237-25.996c-6.364-2.692-8.97-10.003-5.208-15.99l68.768-73.321c3.069-2.619,7.606-3.231,11.264-1.556,3.052,1.397,5.476,4.778,6.012,8.072,5.206,31.987,6.064,65.881,10.97,98.048.303,7.712-6.308,12.369-13.57,10.743ZM945.714,1682.831c-3.889.073-20.545-5.529-23.834-7.797-.66-.455-2.188-1.828-2.59-2.46-1.853-2.906-2.542-12.528-3.039-16.457-6.206-49.04-10.379-98.381-16.509-147.437.106-2.65.828-4.651,2.391-6.775,2.831-3.849,12.827-14.44,16.509-17.519,5.464-4.569,13.359-2.341,16.521,3.776l20.801,184.02c.116,5.728-4.554,10.543-10.249,10.65Z" fill="#231f20"/><path d="M1250.759,1503.209l-249.81-83.095,34.358,313.182,215.452-230.087ZM1111.657,1483.803l78.237,25.996c6.364,2.693,8.97,10.003,5.208,15.99l-68.769,73.321c-3.069,2.619-7.606,3.231-11.264,1.556-3.052-1.398-5.476-4.777-6.012-8.072-5.206-31.987-6.064-65.881-10.97-98.048-.303-7.712,6.307-12.369,13.57-10.742ZM1042.454,1461.58c3.889-.073,20.546,5.529,23.834,7.797.66.455,2.188,1.828,2.59,2.461,1.853,2.906,2.542,12.528,3.039,16.456,6.206,49.04,10.379,98.382,16.509,147.437-.106,2.649-.828,4.651-2.391,6.775-2.831,3.849-12.827,14.441-16.509,17.519-5.464,4.569-13.359,2.341-16.521-3.776l-20.801-184.02c-.116-5.728,4.554-10.543,10.249-10.65Z" fill="#231f20"/><path d="M1295.122,1524.962l-215.452,230.087,249.81,83.095-34.358-313.182ZM1218.772,1774.455l-78.237-25.996c-6.364-2.693-8.97-10.003-5.208-15.99l68.769-73.321c3.069-2.619,7.606-3.23,11.264-1.556,3.052,1.398,5.476,4.778,6.012,8.073,5.206,31.987,6.064,65.881,10.97,98.048.303,7.712-6.307,12.369-13.57,10.742ZM1287.975,1796.679c-3.889.073-20.546-5.529-23.834-7.797-.66-.455-2.188-1.828-2.59-2.461-1.853-2.906-2.542-12.528-3.039-16.456-6.206-49.04-10.379-98.382-16.509-147.437.106-2.649.828-4.651,2.391-6.775,2.831-3.849,12.827-14.441,16.509-17.519,5.464-4.569,13.359-2.341,16.521,3.776l20.801,184.02c.116,5.728-4.554,10.543-10.249,10.65Z" fill="#231f20"/><path d="M1377.568,1847.144l215.452-230.087-249.81-83.095,34.358,313.182ZM1453.918,1597.651l78.237,25.996c6.364,2.692,8.97,10.003,5.208,15.99l-68.769,73.321c-3.069,2.619-7.606,3.231-11.264,1.556-3.052-1.397-5.476-4.778-6.012-8.072-5.206-31.987-6.064-65.881-10.97-98.048-.302-7.712,6.308-12.369,13.57-10.743ZM1384.715,1575.428c3.889-.073,20.546,5.529,23.834,7.797.66.455,2.188,1.828,2.59,2.46,1.853,2.906,2.542,12.529,3.039,16.457,6.206,49.04,10.379,98.381,16.509,147.437-.106,2.65-.828,4.651-2.391,6.776-2.831,3.848-12.827,14.441-16.509,17.519-5.464,4.569-13.359,2.341-16.521-3.776l-20.801-184.02c-.116-5.728,4.554-10.543,10.249-10.65Z" fill="#231f20"/><path d="M1637.382,1638.81l-215.452,230.087,249.81,83.096-34.358-313.183ZM1561.033,1888.303l-78.237-25.996c-6.364-2.693-8.97-10.003-5.208-15.99l68.769-73.32c3.069-2.619,7.606-3.231,11.264-1.557,3.052,1.398,5.476,4.778,6.012,8.073,5.206,31.988,6.064,65.881,10.97,98.048.303,7.712-6.307,12.369-13.57,10.743ZM1630.236,1910.526c-3.889.073-20.546-5.529-23.833-7.797-.66-.455-2.188-1.829-2.591-2.46-1.853-2.906-2.542-12.529-3.039-16.457-6.206-49.04-10.379-98.381-16.509-147.437.106-2.65.828-4.651,2.391-6.775,2.831-3.848,12.827-14.44,16.509-17.519,5.464-4.569,13.36-2.342,16.521,3.776l20.801,184.02c.116,5.728-4.554,10.543-10.249,10.65Z" fill="#231f20"/><path d="M1685.47,1647.81l34.358,313.182,215.452-230.087-249.81-83.095ZM1770.557,1870.202c-2.83,3.848-12.827,14.44-16.509,17.519-5.464,4.569-13.359,2.342-16.52-3.776l-20.802-184.02c-.116-5.728,4.554-10.543,10.249-10.65,3.889-.073,20.546,5.529,23.834,7.797.66.455,2.187,1.829,2.59,2.461,1.853,2.906,2.542,12.528,3.039,16.456,6.206,49.04,10.379,98.382,16.509,147.437-.106,2.65-.828,4.651-2.391,6.776ZM1810.855,1826.805c-3.069,2.619-7.607,3.231-11.264,1.556-3.052-1.397-5.476-4.777-6.012-8.072-5.206-31.988-6.064-65.881-10.97-98.048-.302-7.712,6.308-12.369,13.57-10.742l78.237,25.996c6.364,2.693,8.97,10.003,5.208,15.99l-68.769,73.321Z" fill="#231f20"/><path d="M1979.643,1752.657l-215.452,230.087,249.81,83.095-34.358-313.182ZM1903.294,2002.151l-78.237-25.996c-6.364-2.693-8.97-10.003-5.208-15.99l68.769-73.321c3.069-2.619,7.606-3.231,11.264-1.556,3.052,1.397,5.476,4.777,6.012,8.072,5.206,31.987,6.064,65.88,10.97,98.048.303,7.712-6.307,12.369-13.57,10.743ZM1972.497,2024.373c-3.889.073-20.546-5.529-23.833-7.797-.66-.455-2.188-1.829-2.591-2.461-1.853-2.906-2.542-12.528-3.039-16.456-6.206-49.04-10.379-98.382-16.509-147.437.106-2.65.828-4.651,2.391-6.776,2.831-3.848,12.827-14.441,16.509-17.519,5.464-4.569,13.359-2.341,16.521,3.776l20.801,184.02c.116,5.728-4.554,10.543-10.249,10.65Z" fill="#231f20"/><path d="M2027.731,1761.657l34.358,313.183,215.452-230.087-249.81-83.096ZM2112.817,1984.05c-2.83,3.848-12.827,14.44-16.509,17.519-5.464,4.569-13.359,2.341-16.521-3.776l-20.802-184.02c-.116-5.728,4.554-10.543,10.25-10.65,3.889-.073,20.546,5.529,23.834,7.797.66.455,2.187,1.829,2.59,2.46,1.853,2.906,2.542,12.529,3.039,16.457,6.206,49.04,10.379,98.381,16.509,147.437-.106,2.65-.828,4.651-2.391,6.775ZM2153.115,1940.653c-3.069,2.619-7.607,3.231-11.264,1.557-3.052-1.398-5.476-4.778-6.012-8.073-5.206-31.987-6.064-65.881-10.97-98.048-.302-7.712,6.308-12.369,13.57-10.743l78.237,25.996c6.364,2.693,8.97,10.003,5.208,15.99l-68.769,73.32Z" fill="#231f20"/><path d="M23.644,1758.57l-34.358-313.182-215.452,230.087,249.81,83.095ZM-61.443,1536.177c2.831-3.849,12.827-14.441,16.509-17.519,5.464-4.569,13.36-2.341,16.521,3.776l20.801,184.02c.116,5.728-4.554,10.543-10.249,10.65-3.889.073-20.546-5.529-23.834-7.797-.66-.455-2.187-1.829-2.59-2.461-1.853-2.906-2.542-12.528-3.039-16.456-6.206-49.04-10.379-98.382-16.509-147.437.106-2.65.828-4.651,2.391-6.775ZM-101.74,1579.574c3.069-2.619,7.606-3.231,11.264-1.556,3.052,1.397,5.476,4.777,6.012,8.072,5.206,31.987,6.064,65.88,10.97,98.048.303,7.712-6.308,12.369-13.57,10.742l-78.237-25.996c-6.364-2.692-8.97-10.003-5.208-15.99l68.769-73.321Z" fill="#231f20"/><path d="M37.374,1454.388l34.358,313.182,215.452-230.087-249.81-83.095ZM122.46,1676.78c-2.831,3.848-12.827,14.441-16.509,17.519-5.464,4.569-13.36,2.341-16.521-3.776l-20.801-184.02c-.116-5.728,4.554-10.543,10.249-10.65,3.889-.073,20.546,5.529,23.834,7.797.66.455,2.187,1.828,2.59,2.461,1.853,2.906,2.542,12.528,3.039,16.456,6.206,49.04,10.379,98.382,16.509,147.437-.106,2.65-.828,4.651-2.391,6.775ZM162.758,1633.383c-3.069,2.619-7.606,3.231-11.264,1.556-3.052-1.398-5.476-4.777-6.012-8.072-5.206-31.987-6.064-65.881-10.97-98.048-.303-7.712,6.308-12.369,13.57-10.743l78.237,25.996c6.364,2.693,8.97,10.003,5.208,15.99l-68.769,73.321Z" fill="#231f20"/><path d="M331.546,1559.235l-215.452,230.087,249.81,83.095-34.358-313.182ZM255.197,1808.728l-78.237-25.996c-6.364-2.693-8.97-10.003-5.208-15.99l68.768-73.321c3.069-2.619,7.606-3.231,11.264-1.556,3.052,1.397,5.476,4.778,6.012,8.072,5.206,31.988,6.064,65.881,10.97,98.048.303,7.712-6.308,12.369-13.57,10.743ZM324.399,1830.951c-3.889.073-20.546-5.529-23.834-7.797-.66-.455-2.187-1.828-2.59-2.461-1.853-2.906-2.542-12.528-3.039-16.457-6.206-49.04-10.379-98.381-16.509-147.437.106-2.65.828-4.651,2.391-6.775,2.831-3.849,12.827-14.44,16.509-17.519,5.464-4.569,13.36-2.341,16.521,3.776l20.801,184.02c.116,5.728-4.554,10.543-10.249,10.65Z" fill="#231f20"/><path d="M379.634,1568.235l34.358,313.182,215.452-230.087-249.81-83.095ZM464.721,1790.628c-2.831,3.848-12.827,14.44-16.509,17.519-5.464,4.569-13.359,2.341-16.521-3.776l-20.801-184.02c-.116-5.728,4.554-10.543,10.249-10.65,3.889-.073,20.546,5.529,23.834,7.797.66.455,2.187,1.828,2.59,2.46,1.853,2.906,2.542,12.528,3.039,16.456,6.206,49.04,10.379,98.382,16.509,147.437-.106,2.65-.828,4.651-2.391,6.776ZM505.018,1747.231c-3.069,2.619-7.606,3.231-11.264,1.556-3.052-1.398-5.476-4.777-6.012-8.072-5.206-31.988-6.064-65.881-10.97-98.048-.303-7.712,6.308-12.369,13.57-10.742l78.237,25.996c6.364,2.693,8.97,10.003,5.208,15.99l-68.769,73.321Z" fill="#231f20"/><path d="M673.807,1673.083l-215.452,230.087,249.81,83.096-34.358-313.183ZM597.457,1922.576l-78.237-25.996c-6.364-2.693-8.97-10.003-5.208-15.99l68.768-73.321c3.069-2.619,7.606-3.231,11.264-1.556,3.052,1.398,5.476,4.778,6.012,8.073,5.206,31.987,6.064,65.881,10.97,98.048.303,7.712-6.308,12.369-13.57,10.743ZM666.66,1944.799c-3.889.073-20.545-5.529-23.834-7.797-.66-.455-2.187-1.828-2.59-2.46-1.853-2.906-2.542-12.529-3.039-16.457-6.206-49.04-10.379-98.381-16.509-147.437.106-2.65.828-4.651,2.391-6.775,2.831-3.848,12.827-14.44,16.509-17.519,5.464-4.569,13.36-2.341,16.521,3.776l20.801,184.02c.116,5.728-4.554,10.543-10.249,10.65Z" fill="#231f20"/><path d="M721.895,1682.083l34.358,313.182,215.452-230.087-249.81-83.095ZM806.981,1904.475c-2.831,3.848-12.827,14.441-16.509,17.519-5.464,4.569-13.359,2.341-16.521-3.776l-20.801-184.02c-.116-5.728,4.554-10.543,10.249-10.65,3.889-.073,20.546,5.529,23.834,7.797.66.455,2.187,1.829,2.59,2.46,1.853,2.906,2.542,12.529,3.039,16.457,6.206,49.04,10.379,98.381,16.509,147.437-.106,2.65-.828,4.651-2.391,6.776ZM847.279,1861.078c-3.069,2.619-7.606,3.231-11.264,1.556-3.052-1.397-5.476-4.778-6.012-8.073-5.206-31.987-6.064-65.88-10.97-98.048-.303-7.712,6.308-12.369,13.57-10.743l78.237,25.996c6.364,2.693,8.97,10.003,5.208,15.99l-68.768,73.321Z" fill="#231f20"/><path d="M1016.068,1786.931l-215.452,230.087,249.81,83.095-34.358-313.182ZM939.718,2036.424l-78.237-25.996c-6.364-2.693-8.97-10.003-5.208-15.99l68.768-73.321c3.069-2.619,7.606-3.231,11.264-1.556,3.052,1.397,5.476,4.777,6.012,8.072,5.206,31.988,6.064,65.881,10.97,98.048.303,7.712-6.307,12.369-13.57,10.742ZM1008.921,2058.646c-3.889.073-20.546-5.529-23.834-7.797-.66-.455-2.187-1.828-2.59-2.46-1.853-2.906-2.542-12.528-3.039-16.456-6.206-49.04-10.379-98.382-16.509-147.437.106-2.65.828-4.651,2.391-6.775,2.831-3.848,12.827-14.44,16.509-17.519,5.464-4.569,13.359-2.342,16.521,3.776l20.801,184.02c.116,5.728-4.554,10.543-10.249,10.65Z" fill="#231f20"/><path d="M1064.156,1795.93l34.358,313.182,215.452-230.087-249.81-83.095ZM1149.242,2018.323c-2.831,3.848-12.827,14.44-16.509,17.519-5.464,4.569-13.36,2.342-16.521-3.776l-20.801-184.02c-.116-5.728,4.554-10.543,10.249-10.65,3.889-.073,20.546,5.529,23.834,7.797.66.455,2.188,1.829,2.59,2.461,1.853,2.906,2.542,12.529,3.039,16.457,6.206,49.04,10.379,98.381,16.509,147.437-.106,2.65-.828,4.651-2.391,6.775ZM1189.54,1974.926c-3.069,2.619-7.606,3.231-11.264,1.556-3.052-1.397-5.476-4.777-6.012-8.072-5.206-31.988-6.064-65.881-10.97-98.048-.303-7.712,6.307-12.369,13.57-10.743l78.237,25.996c6.364,2.693,8.97,10.003,5.208,15.99l-68.769,73.32Z" fill="#231f20"/><path d="M1358.328,1900.778l-215.452,230.087,249.81,83.095-34.358-313.182ZM1281.979,2150.271l-78.237-25.996c-6.364-2.692-8.97-10.003-5.208-15.99l68.768-73.321c3.069-2.619,7.607-3.231,11.264-1.556,3.052,1.397,5.476,4.777,6.012,8.072,5.206,31.987,6.064,65.88,10.97,98.048.303,7.712-6.308,12.369-13.57,10.743ZM1351.182,2172.494c-3.889.073-20.546-5.529-23.834-7.797-.66-.455-2.187-1.829-2.59-2.461-1.853-2.906-2.542-12.528-3.039-16.457-6.206-49.04-10.379-98.382-16.509-147.437.106-2.65.828-4.651,2.391-6.776,2.831-3.848,12.827-14.441,16.509-17.519,5.464-4.569,13.359-2.341,16.521,3.776l20.801,184.02c.116,5.728-4.554,10.543-10.249,10.65Z" fill="#231f20"/><path d="M1406.416,1909.778l34.358,313.182,215.452-230.087-249.81-83.095ZM1491.503,2132.17c-2.831,3.849-12.827,14.44-16.509,17.519-5.464,4.569-13.36,2.341-16.521-3.776l-20.801-184.02c-.116-5.728,4.554-10.543,10.249-10.65,3.889-.073,20.546,5.529,23.834,7.797.66.455,2.188,1.829,2.59,2.461,1.853,2.906,2.542,12.528,3.039,16.456,6.206,49.04,10.379,98.382,16.509,147.437-.106,2.65-.828,4.651-2.391,6.775ZM1531.801,2088.773c-3.069,2.619-7.606,3.231-11.264,1.556-3.052-1.398-5.476-4.778-6.012-8.073-5.206-31.987-6.064-65.881-10.97-98.048-.303-7.712,6.307-12.369,13.57-10.742l78.237,25.996c6.364,2.692,8.97,10.003,5.208,15.99l-68.769,73.321Z" fill="#231f20"/><path d="M1700.589,2014.626l-215.452,230.087,249.81,83.095-34.358-313.182ZM1624.24,2264.119l-78.237-25.996c-6.364-2.693-8.97-10.003-5.208-15.99l68.769-73.321c3.069-2.619,7.606-3.231,11.264-1.556,3.052,1.398,5.476,4.778,6.012,8.073,5.206,31.987,6.064,65.881,10.97,98.048.303,7.712-6.308,12.369-13.57,10.742ZM1693.442,2286.342c-3.889.073-20.546-5.53-23.833-7.797-.66-.455-2.187-1.829-2.591-2.461-1.853-2.906-2.542-12.528-3.039-16.456-6.206-49.041-10.379-98.382-16.509-147.437.106-2.65.828-4.651,2.391-6.775,2.831-3.849,12.827-14.44,16.509-17.519,5.464-4.569,13.36-2.341,16.521,3.776l20.801,184.019c.116,5.728-4.554,10.543-10.249,10.651Z" fill="#231f20"/><path d="M1748.677,2023.625l34.358,313.182,215.452-230.087-249.81-83.095ZM1833.764,2246.018c-2.831,3.849-12.827,14.44-16.509,17.519-5.464,4.569-13.359,2.341-16.52-3.776l-20.802-184.02c-.116-5.728,4.554-10.543,10.249-10.65,3.889-.073,20.546,5.529,23.834,7.797.66.455,2.187,1.828,2.59,2.46,1.853,2.906,2.542,12.528,3.039,16.457,6.206,49.04,10.379,98.381,16.509,147.437-.106,2.65-.828,4.651-2.391,6.775ZM1874.061,2202.621c-3.069,2.619-7.607,3.231-11.264,1.556-3.052-1.398-5.476-4.778-6.012-8.072-5.206-31.987-6.064-65.881-10.97-98.048-.302-7.712,6.307-12.369,13.57-10.743l78.237,25.996c6.364,2.692,8.97,10.003,5.208,15.99l-68.768,73.321Z" fill="#231f20"/><path d="M2042.85,2128.473l-215.452,230.087,249.81,83.095-34.358-313.183ZM1966.5,2377.967l-78.237-25.996c-6.364-2.693-8.97-10.003-5.208-15.99l68.769-73.32c3.069-2.619,7.606-3.231,11.264-1.557,3.052,1.398,5.476,4.778,6.012,8.073,5.206,31.988,6.064,65.881,10.97,98.048.303,7.712-6.308,12.369-13.57,10.743ZM2035.703,2400.189c-3.889.073-20.546-5.529-23.833-7.797-.66-.455-2.187-1.829-2.591-2.46-1.853-2.906-2.542-12.529-3.039-16.457-6.206-49.04-10.379-98.381-16.509-147.437.106-2.65.828-4.651,2.391-6.775,2.83-3.848,12.827-14.44,16.509-17.519,5.464-4.569,13.36-2.341,16.521,3.776l20.801,184.02c.116,5.728-4.554,10.543-10.249,10.65Z" fill="#231f20"/><path d="M-237.793,1722.766l34.358,313.182L12.017,1805.862l-249.81-83.095ZM-152.706,1945.159c-2.831,3.848-12.827,14.44-16.509,17.519-5.464,4.569-13.359,2.341-16.521-3.776l-20.801-184.02c-.116-5.728,4.554-10.543,10.249-10.65,3.889-.073,20.545,5.529,23.834,7.797.66.455,2.188,1.829,2.59,2.46,1.853,2.906,2.542,12.529,3.039,16.457,6.206,49.04,10.379,98.381,16.509,147.437-.106,2.65-.828,4.651-2.391,6.776ZM-112.409,1901.762c-3.069,2.619-7.606,3.231-11.264,1.557-3.052-1.398-5.476-4.778-6.012-8.072-5.206-31.988-6.064-65.881-10.97-98.048-.303-7.712,6.308-12.369,13.57-10.743l78.237,25.996c6.364,2.693,8.97,10.003,5.208,15.99l-68.768,73.32Z" fill="#231f20"/><path d="M-159.072,2057.701l249.81,83.095-34.358-313.182-215.452,230.087ZM-19.97,2077.107l-78.237-25.996c-6.364-2.692-8.97-10.003-5.208-15.99l68.769-73.32c3.069-2.619,7.607-3.231,11.264-1.556,3.052,1.397,5.476,4.777,6.012,8.072,5.206,31.988,6.064,65.881,10.97,98.048.303,7.712-6.308,12.37-13.57,10.743ZM49.233,2099.331c-3.889.073-20.546-5.529-23.834-7.797-.66-.455-2.187-1.828-2.59-2.46-1.853-2.906-2.542-12.529-3.039-16.457-6.206-49.04-10.379-98.382-16.509-147.437.106-2.65.828-4.651,2.391-6.776,2.831-3.848,12.827-14.44,16.509-17.519,5.464-4.569,13.36-2.341,16.521,3.776l20.801,184.02c.116,5.728-4.554,10.543-10.249,10.65Z" fill="#231f20"/><path d="M104.468,1836.614l34.358,313.182,215.452-230.087-249.81-83.095ZM189.554,2059.007c-2.831,3.849-12.827,14.44-16.509,17.519-5.464,4.569-13.359,2.341-16.521-3.776l-20.801-184.02c-.116-5.728,4.554-10.543,10.249-10.65,3.889-.073,20.546,5.53,23.834,7.797.66.455,2.187,1.828,2.59,2.461,1.853,2.906,2.542,12.528,3.039,16.457,6.206,49.04,10.379,98.382,16.509,147.437-.106,2.649-.828,4.651-2.391,6.775ZM229.852,2015.61c-3.069,2.619-7.606,3.23-11.264,1.556-3.052-1.398-5.476-4.777-6.012-8.072-5.206-31.987-6.064-65.881-10.97-98.048-.303-7.712,6.308-12.369,13.57-10.742l78.237,25.996c6.364,2.693,8.97,10.003,5.208,15.99l-68.768,73.321Z" fill="#231f20"/><path d="M183.189,2171.549l249.81,83.095-34.358-313.182-215.452,230.087ZM322.291,2190.955l-78.237-25.996c-6.364-2.693-8.97-10.003-5.208-15.99l68.769-73.321c3.069-2.619,7.606-3.231,11.264-1.556,3.052,1.397,5.476,4.777,6.012,8.073,5.206,31.987,6.064,65.881,10.97,98.048.303,7.712-6.308,12.369-13.57,10.742ZM391.494,2213.178c-3.889.073-20.546-5.529-23.834-7.797-.66-.455-2.187-1.829-2.59-2.461-1.853-2.906-2.542-12.528-3.039-16.456-6.206-49.04-10.379-98.382-16.509-147.437.106-2.649.828-4.651,2.391-6.775,2.831-3.849,12.827-14.441,16.509-17.519,5.464-4.569,13.36-2.341,16.521,3.776l20.801,184.019c.116,5.728-4.554,10.543-10.249,10.65Z" fill="#231f20"/><path d="M446.729,1950.462l34.358,313.182,215.452-230.086-249.81-83.096ZM531.815,2172.854c-2.831,3.848-12.827,14.44-16.509,17.519-5.464,4.569-13.359,2.341-16.521-3.776l-20.801-184.02c-.116-5.728,4.554-10.543,10.249-10.65,3.889-.073,20.546,5.529,23.834,7.797.66.455,2.187,1.828,2.59,2.46,1.853,2.906,2.542,12.528,3.039,16.457,6.206,49.04,10.379,98.381,16.509,147.437-.106,2.65-.828,4.651-2.391,6.775ZM572.113,2129.457c-3.069,2.619-7.607,3.231-11.264,1.556-3.052-1.397-5.476-4.777-6.012-8.072-5.206-31.987-6.064-65.881-10.97-98.048-.303-7.712,6.308-12.369,13.57-10.743l78.237,25.996c6.364,2.692,8.97,10.003,5.208,15.99l-68.768,73.321Z" fill="#231f20"/><path d="M525.45,2285.396l249.81,83.095-34.358-313.182-215.452,230.087ZM664.552,2304.803l-78.237-25.996c-6.364-2.693-8.97-10.003-5.208-15.99l68.769-73.321c3.069-2.619,7.606-3.231,11.264-1.556,3.052,1.398,5.476,4.778,6.012,8.073,5.206,31.988,6.064,65.881,10.97,98.048.303,7.712-6.308,12.369-13.57,10.743ZM733.755,2327.026c-3.889.073-20.546-5.529-23.834-7.797-.66-.455-2.187-1.828-2.59-2.46-1.853-2.906-2.542-12.529-3.039-16.457-6.206-49.04-10.379-98.381-16.509-147.437.106-2.65.828-4.651,2.391-6.775,2.831-3.848,12.827-14.44,16.509-17.519,5.464-4.57,13.359-2.342,16.521,3.776l20.801,184.02c.116,5.728-4.554,10.543-10.249,10.65Z" fill="#231f20"/><path d="M788.99,2064.309l34.358,313.182,215.452-230.087-249.81-83.095ZM874.076,2286.702c-2.831,3.848-12.827,14.44-16.509,17.519-5.464,4.569-13.359,2.342-16.521-3.776l-20.801-184.02c-.116-5.728,4.554-10.543,10.249-10.65,3.889-.073,20.546,5.529,23.834,7.797.66.455,2.187,1.829,2.59,2.461,1.853,2.906,2.542,12.528,3.039,16.456,6.206,49.04,10.379,98.382,16.509,147.437-.106,2.65-.828,4.651-2.391,6.776ZM914.374,2243.305c-3.069,2.619-7.606,3.231-11.264,1.556-3.052-1.398-5.476-4.778-6.012-8.072-5.206-31.988-6.064-65.881-10.97-98.048-.303-7.712,6.308-12.369,13.57-10.742l78.237,25.996c6.364,2.693,8.97,10.003,5.208,15.99l-68.768,73.321Z" fill="#231f20"/><path d="M867.71,2399.244l249.81,83.095-34.358-313.182-215.452,230.087ZM1006.813,2418.65l-78.237-25.996c-6.364-2.693-8.97-10.003-5.208-15.99l68.768-73.321c3.069-2.619,7.606-3.231,11.264-1.556,3.052,1.397,5.476,4.777,6.012,8.072,5.206,31.988,6.064,65.881,10.97,98.048.303,7.712-6.308,12.369-13.57,10.742ZM1076.016,2440.873c-3.889.073-20.546-5.529-23.834-7.797-.66-.455-2.188-1.829-2.591-2.461-1.853-2.906-2.542-12.528-3.039-16.456-6.206-49.04-10.379-98.382-16.509-147.437.106-2.65.828-4.651,2.391-6.776,2.831-3.848,12.827-14.44,16.509-17.519,5.464-4.569,13.36-2.341,16.521,3.775l20.801,184.02c.116,5.728-4.554,10.543-10.249,10.65Z" fill="#231f20"/><path d="M1131.25,2178.157l34.358,313.183,215.452-230.087-249.81-83.095ZM1216.337,2400.55c-2.831,3.848-12.827,14.44-16.509,17.519-5.464,4.569-13.359,2.341-16.521-3.776l-20.801-184.02c-.116-5.728,4.554-10.543,10.249-10.65,3.889-.073,20.545,5.529,23.833,7.797.66.455,2.188,1.828,2.591,2.46,1.853,2.906,2.542,12.529,3.039,16.457,6.206,49.04,10.379,98.381,16.509,147.437-.106,2.65-.828,4.651-2.391,6.775ZM1256.634,2357.152c-3.069,2.619-7.606,3.231-11.264,1.557-3.052-1.398-5.476-4.778-6.012-8.073-5.206-31.988-6.064-65.881-10.97-98.048-.303-7.712,6.307-12.369,13.57-10.742l78.237,25.996c6.364,2.693,8.97,10.003,5.208,15.99l-68.768,73.32Z" fill="#231f20"/><path d="M1209.971,2513.092l249.81,83.095-34.358-313.182-215.452,230.087ZM1349.073,2532.498l-78.237-25.996c-6.364-2.693-8.97-10.003-5.208-15.99l68.768-73.321c3.069-2.619,7.606-3.231,11.264-1.556,3.052,1.398,5.476,4.778,6.012,8.072,5.206,31.987,6.064,65.881,10.97,98.048.303,7.712-6.307,12.369-13.57,10.743ZM1418.276,2554.721c-3.889.073-20.546-5.529-23.834-7.797-.66-.455-2.188-1.828-2.591-2.46-1.853-2.906-2.542-12.528-3.039-16.457-6.206-49.04-10.379-98.381-16.509-147.437.106-2.65.828-4.651,2.391-6.776,2.831-3.848,12.827-14.44,16.509-17.519,5.464-4.569,13.359-2.341,16.521,3.776l20.801,184.02c.116,5.728-4.554,10.543-10.249,10.65Z" fill="#231f20"/><path d="M1473.511,2292.005l34.358,313.182,215.452-230.087-249.81-83.095ZM1558.597,2514.397c-2.831,3.849-12.827,14.44-16.509,17.519-5.464,4.569-13.359,2.341-16.521-3.776l-20.801-184.02c-.116-5.728,4.554-10.543,10.249-10.65,3.889-.073,20.545,5.529,23.833,7.797.66.455,2.188,1.829,2.591,2.461,1.853,2.906,2.542,12.528,3.039,16.456,6.206,49.041,10.379,98.382,16.509,147.437-.106,2.65-.828,4.651-2.391,6.775ZM1598.895,2471c-3.069,2.619-7.606,3.231-11.264,1.556-3.052-1.397-5.476-4.777-6.012-8.072-5.206-31.987-6.064-65.881-10.97-98.048-.303-7.712,6.307-12.369,13.57-10.743l78.237,25.996c6.364,2.693,8.97,10.003,5.208,15.99l-68.769,73.321Z" fill="#231f20"/><path d="M1767.684,2396.852l-215.452,230.087,249.81,83.095-34.358-313.182ZM1691.334,2646.345l-78.237-25.996c-6.364-2.692-8.97-10.003-5.208-15.99l68.768-73.321c3.069-2.619,7.606-3.231,11.264-1.556,3.052,1.398,5.476,4.778,6.012,8.073,5.206,31.987,6.064,65.881,10.97,98.048.302,7.712-6.307,12.369-13.57,10.742ZM1760.537,2668.569c-3.889.073-20.546-5.529-23.834-7.797-.66-.455-2.188-1.828-2.591-2.461-1.853-2.906-2.542-12.528-3.039-16.456-6.206-49.04-10.379-98.382-16.509-147.437.106-2.65.828-4.651,2.391-6.775,2.831-3.849,12.827-14.441,16.509-17.519,5.464-4.569,13.359-2.341,16.52,3.776l20.801,184.02c.116,5.728-4.554,10.543-10.249,10.65Z" fill="#231f20"/><path d="M1815.772,2405.852l34.358,313.182,215.452-230.087-249.81-83.095ZM1900.858,2628.245c-2.83,3.849-12.827,14.441-16.509,17.519-5.464,4.569-13.359,2.341-16.521-3.776l-20.801-184.02c-.117-5.728,4.554-10.543,10.249-10.65,3.889-.073,20.545,5.529,23.833,7.797.66.455,2.187,1.829,2.591,2.461,1.853,2.906,2.542,12.528,3.039,16.456,6.206,49.04,10.379,98.382,16.509,147.437-.106,2.65-.828,4.651-2.391,6.775ZM1941.156,2584.848c-3.069,2.619-7.606,3.231-11.264,1.556-3.052-1.398-5.476-4.778-6.012-8.073-5.206-31.987-6.064-65.88-10.97-98.048-.303-7.712,6.308-12.369,13.57-10.743l78.237,25.996c6.364,2.692,8.97,10.003,5.208,15.99l-68.769,73.321Z" fill="#231f20"/><path d="M75.224,2181.678l-249.81-83.096,34.358,313.183,215.452-230.087ZM-63.878,2162.271l78.237,25.996c6.364,2.693,8.97,10.003,5.208,15.99l-68.769,73.321c-3.069,2.619-7.606,3.231-11.264,1.556-3.052-1.397-5.476-4.778-6.012-8.073-5.206-31.987-6.064-65.881-10.97-98.048-.303-7.712,6.308-12.369,13.57-10.743ZM-133.081,2140.048c3.889-.073,20.545,5.529,23.834,7.797.66.455,2.188,1.829,2.59,2.46,1.853,2.906,2.542,12.529,3.039,16.457,6.206,49.04,10.379,98.381,16.509,147.437-.106,2.65-.828,4.651-2.391,6.775-2.831,3.848-12.827,14.44-16.509,17.519-5.464,4.569-13.36,2.341-16.521-3.776l-20.801-184.02c-.116-5.728,4.554-10.543,10.249-10.65Z" fill="#231f20"/><path d="M119.587,2203.43l-215.452,230.087,249.81,83.095-34.358-313.182ZM43.237,2452.923l-78.237-25.996c-6.364-2.693-8.97-10.003-5.208-15.99l68.769-73.321c3.069-2.619,7.606-3.23,11.264-1.556,3.052,1.398,5.476,4.778,6.012,8.072,5.206,31.988,6.064,65.881,10.97,98.048.303,7.712-6.308,12.369-13.57,10.742ZM112.44,2475.146c-3.889.073-20.546-5.529-23.834-7.797-.66-.455-2.187-1.828-2.59-2.46-1.853-2.906-2.542-12.528-3.039-16.457-6.206-49.04-10.379-98.382-16.509-147.437.106-2.65.828-4.651,2.391-6.775,2.831-3.848,12.827-14.44,16.509-17.519,5.464-4.569,13.36-2.342,16.521,3.776l20.801,184.02c.116,5.728-4.554,10.543-10.249,10.65Z" fill="#231f20"/><path d="M417.485,2295.525l-249.81-83.095,34.358,313.182,215.452-230.087ZM278.382,2276.119l78.237,25.996c6.364,2.693,8.97,10.003,5.208,15.99l-68.768,73.321c-3.069,2.619-7.606,3.231-11.264,1.556-3.052-1.397-5.476-4.778-6.012-8.072-5.206-31.988-6.064-65.881-10.97-98.048-.303-7.712,6.308-12.37,13.57-10.743ZM209.18,2253.896c3.889-.073,20.546,5.529,23.834,7.797.66.455,2.187,1.829,2.59,2.461,1.853,2.906,2.542,12.529,3.039,16.457,6.206,49.04,10.379,98.381,16.509,147.437-.106,2.65-.828,4.651-2.391,6.775-2.831,3.848-12.827,14.44-16.509,17.519-5.464,4.569-13.359,2.342-16.521-3.776l-20.801-184.02c-.116-5.728,4.554-10.543,10.249-10.65Z" fill="#231f20"/><path d="M461.847,2317.278l-215.452,230.087,249.81,83.095-34.358-313.182ZM385.498,2566.771l-78.237-25.996c-6.364-2.692-8.97-10.003-5.208-15.99l68.769-73.321c3.069-2.619,7.606-3.231,11.264-1.556,3.052,1.397,5.476,4.777,6.012,8.072,5.206,31.988,6.064,65.881,10.97,98.048.303,7.712-6.308,12.369-13.57,10.742ZM454.701,2588.994c-3.889.073-20.545-5.529-23.834-7.797-.66-.455-2.187-1.829-2.59-2.461-1.853-2.906-2.542-12.528-3.039-16.456-6.206-49.04-10.379-98.382-16.509-147.437.106-2.65.828-4.651,2.391-6.775,2.831-3.848,12.827-14.44,16.509-17.519,5.464-4.569,13.359-2.341,16.521,3.776l20.801,184.02c.116,5.728-4.554,10.543-10.249,10.65Z" fill="#231f20"/><path d="M759.745,2409.373l-249.81-83.095,34.358,313.182,215.452-230.087ZM620.643,2389.967l78.237,25.996c6.364,2.692,8.97,10.003,5.208,15.99l-68.768,73.32c-3.069,2.619-7.607,3.231-11.264,1.557-3.052-1.398-5.476-4.778-6.012-8.073-5.206-31.988-6.064-65.881-10.97-98.048-.303-7.712,6.308-12.369,13.57-10.742ZM551.44,2367.743c3.889-.073,20.546,5.53,23.834,7.798.66.455,2.187,1.828,2.59,2.46,1.853,2.906,2.542,12.528,3.039,16.457,6.206,49.04,10.379,98.382,16.509,147.437-.106,2.65-.828,4.651-2.391,6.775-2.831,3.848-12.827,14.44-16.509,17.519-5.464,4.569-13.359,2.341-16.521-3.776l-20.801-184.02c-.116-5.728,4.554-10.543,10.249-10.65Z" fill="#231f20"/><path d="M804.108,2431.125l-215.452,230.087,249.81,83.095-34.358-313.182ZM727.758,2680.619l-78.237-25.996c-6.364-2.693-8.97-10.003-5.208-15.99l68.769-73.321c3.069-2.619,7.606-3.231,11.264-1.556,3.052,1.397,5.476,4.777,6.012,8.072,5.206,31.988,6.064,65.881,10.97,98.048.303,7.712-6.307,12.369-13.57,10.743ZM796.961,2702.842c-3.889.073-20.546-5.529-23.834-7.797-.66-.455-2.187-1.829-2.59-2.461-1.853-2.906-2.542-12.528-3.039-16.457-6.206-49.04-10.379-98.381-16.509-147.437.106-2.65.828-4.651,2.391-6.776,2.831-3.848,12.827-14.44,16.509-17.519,5.464-4.569,13.359-2.341,16.521,3.776l20.801,184.02c.116,5.728-4.554,10.543-10.249,10.65Z" fill="#231f20"/><path d="M1102.006,2523.22l-249.81-83.095,34.358,313.182,215.452-230.087ZM962.904,2503.814l78.237,25.996c6.364,2.693,8.97,10.003,5.208,15.99l-68.768,73.321c-3.069,2.619-7.606,3.231-11.264,1.556-3.052-1.397-5.476-4.777-6.012-8.072-5.206-31.987-6.064-65.881-10.97-98.048-.303-7.712,6.308-12.369,13.57-10.743ZM893.701,2481.591c3.889-.073,20.546,5.529,23.834,7.797.66.455,2.187,1.828,2.59,2.46,1.853,2.906,2.542,12.528,3.039,16.457,6.206,49.041,10.379,98.382,16.509,147.437-.106,2.65-.828,4.651-2.391,6.775-2.831,3.848-12.827,14.44-16.509,17.519-5.464,4.569-13.359,2.341-16.521-3.776l-20.801-184.02c-.116-5.728,4.554-10.543,10.249-10.65Z" fill="#231f20"/><path d="M1146.369,2544.973l-215.452,230.087,249.81,83.095-34.358-313.182ZM1070.019,2794.466l-78.237-25.996c-6.364-2.693-8.97-10.003-5.208-15.99l68.768-73.321c3.069-2.619,7.606-3.231,11.264-1.556,3.052,1.398,5.476,4.778,6.012,8.073,5.206,31.987,6.064,65.881,10.97,98.048.303,7.712-6.307,12.369-13.57,10.743ZM1139.222,2816.689c-3.889.073-20.546-5.529-23.834-7.797-.66-.455-2.187-1.828-2.59-2.46-1.853-2.906-2.542-12.529-3.039-16.457-6.206-49.04-10.379-98.381-16.509-147.437.106-2.65.828-4.651,2.391-6.775,2.831-3.848,12.827-14.44,16.509-17.519,5.464-4.569,13.359-2.341,16.521,3.776l20.801,184.02c.116,5.728-4.554,10.543-10.249,10.65Z" fill="#231f20"/><path d="M1444.267,2637.068l-249.81-83.095,34.358,313.182,215.452-230.087ZM1305.165,2617.662l78.237,25.996c6.364,2.693,8.97,10.003,5.208,15.99l-68.768,73.321c-3.069,2.619-7.606,3.231-11.264,1.556-3.052-1.398-5.476-4.778-6.012-8.072-5.206-31.988-6.064-65.881-10.97-98.048-.302-7.712,6.308-12.369,13.57-10.743ZM1235.962,2595.439c3.889-.073,20.546,5.529,23.834,7.797.66.455,2.187,1.829,2.59,2.461,1.853,2.906,2.542,12.528,3.039,16.456,6.206,49.04,10.379,98.382,16.509,147.437-.106,2.65-.828,4.651-2.391,6.776-2.831,3.848-12.827,14.44-16.509,17.519-5.464,4.569-13.359,2.341-16.521-3.776l-20.801-184.019c-.116-5.728,4.554-10.543,10.249-10.65Z" fill="#231f20"/><path d="M1488.63,2658.821l-215.452,230.087,249.81,83.095-34.358-313.182ZM1412.28,2908.314l-78.237-25.996c-6.364-2.693-8.97-10.003-5.208-15.99l68.769-73.321c3.069-2.619,7.606-3.231,11.264-1.556,3.052,1.397,5.476,4.777,6.012,8.072,5.206,31.988,6.064,65.881,10.97,98.048.303,7.712-6.307,12.369-13.57,10.742ZM1481.483,2930.537c-3.889.073-20.546-5.529-23.834-7.797-.66-.455-2.187-1.829-2.59-2.461-1.853-2.906-2.542-12.528-3.039-16.456-6.206-49.04-10.379-98.382-16.509-147.437.106-2.65.828-4.651,2.391-6.776,2.831-3.848,12.827-14.44,16.509-17.519,5.464-4.569,13.359-2.342,16.521,3.775l20.801,184.02c.116,5.728-4.554,10.543-10.249,10.65Z" fill="#231f20"/><path d="M1536.718,2667.82l34.358,313.183,215.452-230.087-249.81-83.095ZM1621.804,2890.213c-2.83,3.848-12.827,14.44-16.509,17.519-5.464,4.569-13.36,2.342-16.521-3.776l-20.801-184.02c-.116-5.728,4.554-10.543,10.249-10.65,3.889-.073,20.546,5.529,23.833,7.797.66.455,2.187,1.828,2.591,2.46,1.853,2.906,2.542,12.529,3.039,16.457,6.206,49.04,10.379,98.381,16.509,147.437-.106,2.65-.828,4.651-2.391,6.775ZM1662.102,2846.816c-3.069,2.619-7.606,3.231-11.264,1.557-3.052-1.398-5.476-4.778-6.012-8.073-5.206-31.988-6.064-65.881-10.97-98.048-.302-7.712,6.308-12.369,13.57-10.742l78.237,25.996c6.364,2.693,8.97,10.003,5.208,15.99l-68.769,73.32Z" fill="#231f20"/><path d="M-106.968,2472.714l34.358,313.182,215.452-230.087-249.81-83.095ZM-21.882,2695.107c-2.831,3.848-12.827,14.44-16.509,17.519-5.464,4.569-13.359,2.342-16.521-3.776l-20.801-184.02c-.116-5.728,4.554-10.543,10.249-10.65,3.889-.073,20.546,5.529,23.834,7.797.66.455,2.187,1.828,2.59,2.46,1.853,2.906,2.542,12.528,3.039,16.456,6.206,49.04,10.379,98.382,16.509,147.437-.106,2.65-.828,4.651-2.391,6.775ZM18.416,2651.71c-3.069,2.619-7.606,3.23-11.264,1.556-3.052-1.397-5.476-4.777-6.012-8.072-5.206-31.988-6.064-65.881-10.97-98.048-.303-7.712,6.308-12.369,13.57-10.742l78.237,25.996c6.364,2.693,8.97,10.003,5.208,15.99l-68.768,73.321Z" fill="#231f20"/><path d="M187.204,2577.562l-215.452,230.087,249.81,83.095-34.358-313.183ZM110.854,2827.056l-78.237-25.996c-6.364-2.693-8.97-10.003-5.208-15.99l68.768-73.321c3.069-2.619,7.606-3.231,11.264-1.556,3.052,1.397,5.476,4.778,6.012,8.073,5.206,31.987,6.064,65.88,10.97,98.048.303,7.712-6.307,12.369-13.57,10.743ZM180.057,2849.279c-3.889.073-20.546-5.53-23.834-7.797-.66-.455-2.187-1.829-2.59-2.46-1.853-2.906-2.542-12.529-3.039-16.457-6.206-49.04-10.379-98.381-16.509-147.437.106-2.65.828-4.651,2.391-6.775,2.831-3.849,12.827-14.44,16.509-17.519,5.464-4.569,13.36-2.341,16.521,3.776l20.801,184.02c.116,5.728-4.554,10.543-10.249,10.65Z" fill="#231f20"/><path d="M235.292,2586.562l34.358,313.183,215.452-230.087-249.81-83.095ZM320.379,2808.955c-2.831,3.848-12.827,14.44-16.509,17.519-5.464,4.569-13.359,2.341-16.521-3.776l-20.801-184.02c-.116-5.728,4.554-10.543,10.249-10.65,3.889-.073,20.546,5.53,23.834,7.797.66.455,2.187,1.829,2.59,2.46,1.853,2.906,2.542,12.529,3.039,16.457,6.206,49.04,10.379,98.381,16.509,147.437-.106,2.65-.828,4.651-2.391,6.775ZM360.676,2765.558c-3.069,2.619-7.606,3.231-11.264,1.556-3.052-1.397-5.476-4.778-6.012-8.072-5.206-31.987-6.064-65.881-10.97-98.048-.303-7.712,6.308-12.369,13.57-10.743l78.237,25.996c6.364,2.693,8.97,10.003,5.208,15.99l-68.769,73.321Z" fill="#231f20"/><path d="M529.465,2691.41l-215.452,230.087,249.81,83.095-34.358-313.182ZM453.115,2940.903l-78.237-25.996c-6.364-2.693-8.97-10.003-5.208-15.99l68.768-73.321c3.069-2.619,7.606-3.23,11.264-1.556,3.052,1.398,5.476,4.778,6.012,8.072,5.206,31.988,6.064,65.881,10.97,98.048.303,7.712-6.308,12.369-13.57,10.742ZM522.318,2963.126c-3.889.073-20.545-5.529-23.834-7.797-.66-.455-2.187-1.828-2.59-2.46-1.853-2.906-2.542-12.528-3.039-16.456-6.206-49.04-10.379-98.382-16.509-147.437.106-2.65.828-4.65,2.391-6.775,2.831-3.848,12.827-14.44,16.509-17.519,5.464-4.569,13.36-2.342,16.521,3.775l20.801,184.02c.116,5.728-4.554,10.543-10.249,10.65Z" fill="#231f20"/><path d="M577.553,2700.41l34.358,313.182,215.452-230.087-249.81-83.095ZM662.639,2922.802c-2.831,3.849-12.827,14.44-16.509,17.519-5.464,4.57-13.359,2.342-16.521-3.775l-20.801-184.02c-.116-5.728,4.554-10.543,10.249-10.65,3.889-.073,20.546,5.529,23.834,7.797.66.455,2.187,1.828,2.59,2.46,1.853,2.906,2.542,12.529,3.039,16.457,6.206,49.04,10.379,98.381,16.509,147.437-.106,2.65-.828,4.651-2.391,6.775ZM702.937,2879.405c-3.069,2.619-7.606,3.231-11.264,1.556-3.052-1.397-5.476-4.778-6.012-8.072-5.206-31.988-6.064-65.881-10.97-98.048-.303-7.712,6.308-12.369,13.57-10.743l78.237,25.996c6.364,2.693,8.97,10.003,5.208,15.99l-68.768,73.321Z" fill="#231f20"/><path d="M1904.395,2740.024l249.81,83.095-34.358-313.182-215.452,230.087ZM2043.497,2759.431l-78.237-25.996c-6.364-2.693-8.97-10.003-5.208-15.99l68.769-73.321c3.069-2.619,7.606-3.231,11.264-1.556,3.052,1.398,5.476,4.778,6.012,8.072,5.206,31.988,6.064,65.881,10.97,98.048.303,7.712-6.307,12.369-13.57,10.743ZM2112.7,2781.653c-3.889.073-20.545-5.529-23.833-7.797-.66-.455-2.187-1.828-2.59-2.461-1.853-2.906-2.542-12.528-3.039-16.456-6.206-49.04-10.379-98.382-16.509-147.437.106-2.65.828-4.651,2.391-6.776,2.831-3.848,12.827-14.44,16.509-17.519,5.464-4.569,13.36-2.341,16.521,3.775l20.801,184.02c.116,5.728-4.554,10.543-10.25,10.65Z" fill="#231f20"/><path d="M24.191,40.766L-225.619-42.329l34.358,313.182L24.191,40.766ZM-114.911,21.36l78.237,25.996c6.364,2.693,8.97,10.003,5.208,15.99l-68.768,73.321c-3.069,2.619-7.606,3.231-11.264,1.556-3.052-1.397-5.476-4.777-6.012-8.072-5.206-31.988-6.064-65.881-10.97-98.048-.303-7.712,6.308-12.369,13.57-10.742ZM-184.114-.863c3.889-.073,20.546,5.529,23.834,7.797.66.455,2.187,1.828,2.59,2.461,1.853,2.906,2.542,12.528,3.039,16.457,6.206,49.04,10.379,98.381,16.509,147.437-.106,2.65-.828,4.651-2.391,6.775-2.831,3.848-12.827,14.44-16.509,17.519-5.464,4.569-13.359,2.341-16.521-3.776L-194.364,9.787c-.116-5.728,4.554-10.543,10.249-10.65Z" fill="#231f20"/></g></svg>