<?xml version="1.0" encoding="UTF-8"?><svg id="Layer_1" xmlns="http://www.w3.org/2000/svg" viewBox="0 0 24 24"><path d="M20.67,16.899l-.287-.438c-.255-.39-.368-.905-.368-1.672v-3.8c-.037-3.013-2.171-5.653-5.015-6.604v-.384c0-1.654-1.346-3-3-3s-3,1.346-3,3v.364c-2.857.937-4.994,3.591-5.015,6.636v3.79c0,.768-.113,1.282-.367,1.67l-.286.436c-.407.618-.441,1.406-.09,2.059.348.646,1.016,1.046,1.743,1.046h3.142c.445,1.724,2.013,3,3.874,3s3.429-1.276,3.873-3h3.142c.727,0,1.395-.4,1.742-1.044.352-.652.318-1.44-.087-2.058ZM12,21c-.739,0-1.385-.402-1.731-1h3.463c-.346.598-.993,1-1.731,1Z"/></svg>