<?xml version="1.0" encoding="UTF-8"?><svg id="Layer_1" xmlns="http://www.w3.org/2000/svg" viewBox="0 0 24 24"><path d="M12,9c2.206,0,4-1.794,4-4s-1.794-4-4-4-4,1.794-4,4,1.794,4,4,4Z"/><path d="M4,12c1.654,0,3-1.346,3-3s-1.346-3-3-3-3,1.346-3,3,1.346,3,3,3Z"/><path d="M20,12c1.654,0,3-1.346,3-3s-1.346-3-3-3-3,1.346-3,3,1.346,3,3,3Z"/><path d="M23.598,17.507l-.333-2.001c-.243-1.452-1.487-2.506-2.959-2.506h-.306c-.552,0-1,.447-1,1s.448,1,1,1h.306c.491,0,.906.352.987.835l.333,2c.044.264-.018.529-.173.746-.155.218-.386.361-.654.406-.053.009-.106.013-.16.013h-3.006l-.562-4.496c-.25-1.998-1.956-3.503-3.969-3.503h-2.206c-2.013,0-3.718,1.507-3.968,3.503l-.563,4.496h-3.005c-.054,0-.107-.004-.165-.014-.264-.044-.495-.188-.649-.405-.155-.217-.217-.482-.173-.746l.333-2c.081-.483.496-.835.987-.835h.306c.552,0,1-.447,1-1s-.448-1-1-1h-.306c-1.473,0-2.717,1.054-2.959,2.507l-.333,2c-.132.79.052,1.585.518,2.236.466.652,1.158,1.084,1.944,1.215.164.028.331.042.498.042h3.089c.37,1.033,1.284,1.832,2.45,1.979.122.015.244.021.366.021h5.47c.8,0,1.553-.312,2.119-.878.321-.321.55-.706.698-1.122h3.086c.167,0,.334-.014.494-.041.791-.132,1.482-.563,1.948-1.216.465-.651.649-1.446.518-2.236Z"/></svg>