<?xml version="1.0" encoding="UTF-8"?><svg id="Layer_1" xmlns="http://www.w3.org/2000/svg" viewBox="0 0 24 24"><path d="M11.503,8.601c-.224-1.793-.166-3.604.171-5.374.142-.562-.182-1.136-.754-1.308-.276-.075-.567-.039-.814.104-.249.142-.429.373-.501.642l-2.163,6.666c-.171.436-.287.898-.345,1.378-.056.745-.052,1.374-.047,1.982.003.611.007,1.187-.045,1.876-.031.451-.174.888-.412,1.264-.651.966-1.435,1.832-2.332,2.575-.017.015-.036.033-.054.054-.155.182-.134.457.045.612l2.987,2.979c.075.045.16.068.245.068.092,0,.184-.026.262-.079l2.583-2.904c.757-.866,1.256-1.925,1.442-3.086l-.026-5.832-.241-1.617ZM8.989,19.383l-1.517,1.702-2.33-2.327c.529-.487,1.038-1.012,1.516-1.563l2.332,2.188ZM10.696,9.037c-.365-.065-.739.021-1.045.235-.352.262-.553.678-.539,1.111v3.526c0,.235.191.427.427.427.235,0,.426-.192.426-.427v-3.562c.014-.249.21-.447.459-.459.122-.004.252.039.347.125.096.086.152.205.157.327v5.79c-.228.976-.707,1.876-1.386,2.613l-2.37-2.229c.386-.544.618-1.178.675-1.844.053-.675.07-1.365.047-2.049-.008-.594.004-1.171.038-1.757.045-.415.143-.82.296-1.214l2.205-6.784c.038-.117.164-.174.274-.141.056.018.1.057.127.109s.031.111.008.188c-.308,1.992-.356,4.014-.146,6.015Z"/><path d="M19.756,18.427c-1.086-.86-1.964-1.915-2.611-3.136-.191-.934-.253-1.892-.187-2.858.008-.561-.011-1.139-.058-1.769-.057-.452-.171-.902-.337-1.327l-2.167-6.672-.003-.007c-.078-.276-.26-.504-.511-.643s-.541-.173-.817-.092c-.558.167-.882.741-.742,1.29.292,1.932.333,3.892.12,5.828-.015.161-.056.326-.095.484-.052.214-.106.437-.106.67l-.013,5.859c.022.352.102.695.235,1.011.317.869.796,1.652,1.421,2.326l2.313,2.597c.085.086.198.129.313.129.106,0,.213-.036.301-.113l2.922-2.922.049-.046c.16-.171.152-.443-.028-.611ZM13.06,10.31c.006-.262.22-.47.48-.47h.01c.128.003.248.056.337.148.089.093.136.214.135.345v3.579c0,.237.191.427.426.427.237,0,.427-.191.427-.427v-3.625c-.008-.419-.221-.809-.571-1.044-.296-.198-.667-.273-1.011-.212.219-2.017.171-4.053-.141-6.058-.021-.111.052-.217.16-.241.121-.022.228.047.264.167l2.192,6.759c.157.398.258.817.295,1.236l.047,1.246c-.038.844-.025,1.693.035,2.529.058.667.292,1.301.678,1.844l-2.375,2.231c-.714-.766-1.196-1.709-1.391-2.717v-5.718ZM14.443,18.938l.006.006-.008-.003s0,0,0,0l.003-.003ZM18.848,18.76l-2.322,2.325-1.521-1.695,2.327-2.19c.477.551.987,1.075,1.516,1.56Z"/></svg>