<?xml version="1.0" encoding="UTF-8"?><svg id="Layer_1" xmlns="http://www.w3.org/2000/svg" viewBox="0 0 24 24"><g id="Group_797"><g id="Group_796"><path id="Path_2224" d="M6.204,17.302c-.564.664-1.169,1.292-1.813,1.878l-.085.074,2.874,2.866,1.971-2.218-2.871-2.692-.075.091Z"/><path id="Path_2225" d="M10.344,9.5c-.424-.006-.772.332-.779.755,0,.006,0,.012,0,.017v3.81c.002.054-.019.106-.056.144-.034.034-.08.053-.129.053h0c-.106-.002-.191-.089-.189-.195,0,0,0-.001,0-.002v-3.756c-.015-.384.16-.751.468-.981.323-.223.732-.281,1.104-.156l.16.048-.019-.166c-.252-2.183-.213-4.389.117-6.562.075-.262-.076-.536-.339-.611-.256-.073-.524.069-.606.322l-2.355,7.235-.052.157c-.146.384-.239.786-.276,1.195-.036.618-.049,1.238-.042,1.901.024.723.008,1.446-.049,2.167-.059.705-.319,1.379-.75,1.94l-.056.078,2.889,2.716.075-.081c.813-.844,1.383-1.892,1.648-3.034v-6.224c0-.428-.345-.775-.773-.776h0"/><path id="Path_2226" d="M19.604,19.171c-.645-.583-1.251-1.207-1.815-1.869l-.075-.088-2.865,2.699,1.981,2.208,2.865-2.872-.091-.077Z"/><path id="Path_2227" d="M17.442,16.815c-.431-.562-.692-1.236-.751-1.942h0c-.066-.89-.081-1.784-.043-2.676l-.045-1.346c-.032-.424-.125-.84-.277-1.237l-2.395-7.356c-.075-.253-.331-.406-.589-.351-.253.055-.418.3-.374.555.338,2.186.38,4.408.124,6.605l-.02.163.159-.045c.361-.124.758-.075,1.078.133.299.203.483.537.494.899v3.863c0,.054-.021.106-.059.144-.034.035-.08.055-.129.056h0c-.106-.004-.189-.092-.186-.198v-3.81c0-.203-.08-.398-.224-.542-.148-.145-.346-.227-.553-.227h0c-.413.002-.752.33-.767.743v6.117c.228,1.196.804,2.298,1.654,3.168l.075.079,2.889-2.715-.059-.082Z"/></g></g></svg>